<?xml version="1.0" encoding="UTF-8"?>
<svg xmlns="http://www.w3.org/2000/svg" version="1.1" viewBox="0 0 426.78 485.71">
  <defs>
    <style>
      .cls-1 {
        fill: #f5871f;
      }
    </style>
  </defs>
  <!-- Generator: Adobe Illustrator 28.6.0, SVG Export Plug-In . SVG Version: 1.2.0 Build 709)  -->
  <g>
    <g id="Layer_1">
      <g>
        <polygon class="cls-1" points="426.78 182.29 426.78 151.48 396.64 151.48 396.64 120.3 365.31 120.3 365.31 0 335.81 0 335.81 29.27 305.14 29.27 305.14 58.89 335.81 58.89 335.81 273.45 305.14 273.45 305.14 303.07 335.81 303.07 335.81 334.7 305.14 334.7 305.14 364.32 335.81 364.32 335.81 364.57 365.31 364.57 365.31 333.48 396.64 333.48 396.64 303.02 426.78 303.02 426.78 211.36 396.64 211.36 396.64 182.29 426.78 182.29"/>
        <rect class="cls-1" x="122.05" y="59.25" width="183.15" height="30.43"/>
        <polygon class="cls-1" points="335.46 364.57 273.85 364.57 273.85 334.7 244.23 334.7 244.23 364.57 91.53 364.57 91.53 395 335.46 395 335.46 364.57"/>
        <polygon class="cls-1" points="121.76 333.74 121.76 304.12 91.3 304.12 91.3 58.89 121.76 58.89 121.76 29.27 91.3 29.27 91.3 0 61.79 0 61.79 120.68 30.53 120.68 30.53 151.09 0 151.09 0 181.89 30.8 181.89 30.8 151.48 61.79 151.48 61.79 182.29 30.53 182.29 30.53 211.49 0 211.49 0 304.6 30.53 304.6 30.53 333.48 61.79 333.48 61.79 364.57 91.3 364.57 91.3 333.74 121.76 333.74"/>
        <rect class="cls-1" x="152.57" y="304.12" width="29.62" height="29.62"/>
        <polygon class="cls-1" points="244.05 304.6 244.05 237.51 244.05 212.2 214.42 212.2 183.72 212.2 183.72 237.51 214.42 237.51 214.42 304.6 244.05 304.6"/>
        <polygon class="cls-1" points="182.73 181.89 152.32 181.89 152.32 120.3 122.73 120.3 122.73 181.89 122.4 181.89 122.4 211.49 122.73 211.49 122.73 211.57 152.32 211.57 152.32 211.49 182.73 211.49 182.73 181.89"/>
        <polygon class="cls-1" points="244.25 120.3 244.25 211.57 273.84 211.57 273.84 211.49 304.72 211.49 304.72 181.89 273.84 181.89 273.84 120.3 244.25 120.3"/>
        <rect class="cls-1" x="122.35" y="273.45" width="29.62" height="29.62"/>
        <rect class="cls-1" x="61.42" y="456.33" width="29.31" height="29.39"/>
        <rect class="cls-1" x="153.12" y="456.33" width="29.31" height="29.39"/>
        <rect class="cls-1" x="244.39" y="456.33" width="29.31" height="29.39"/>
        <rect class="cls-1" x="335.46" y="456.33" width="29.31" height="29.39"/>
      </g>
    </g>
  </g>
</svg>