<?xml version="1.0" encoding="utf-8"?>
<!-- Generator: Adobe Illustrator 28.1.0, SVG Export Plug-In . SVG Version: 6.00 Build 0)  -->
<svg version="1.1" id="Layer_1" xmlns="http://www.w3.org/2000/svg" xmlns:xlink="http://www.w3.org/1999/xlink" x="0px" y="0px"
	 viewBox="0 0 1063.68 228.12" style="enable-background:new 0 0 1063.68 228.12;" xml:space="preserve">
<style type="text/css">
	.st0{fill:#346783;}
	.st1{fill:#3D857B;}
	.st2{fill:#133851;}
	.st3{fill:#FFFFFF;}
	.st4{fill:#FB8F00;}
	.st5{fill:#346786;}
	.st6{fill:#808285;}
	.st7{fill:#6D6E71;}
	.st8{fill:#003A58;}
	.st9{fill:#231F20;}
	.st10{fill:#8F9194;}
	.st11{fill:#FE9200;}
	.st12{fill:#7C7C7C;}
	.st13{fill:#01678A;}
	.st14{fill:#808082;}
	.st15{fill:#CDCFD0;}
	.st16{fill:#E3E4E5;}
</style>
<g>
	<g>
		<g>
			<path class="st3" d="M397.08,210.46l-2.96-8.3h-10.34l-3.04,8.3h-3.84l10.34-27.14h3.77l9.88,27.14H397.08z M389.09,187.78
				l-4.15,11.34h8.11L389.09,187.78z"/>
			<path class="st3" d="M443.17,190.97c0,0.87-0.11,1.71-0.33,2.52s-0.54,1.55-0.98,2.23c-0.44,0.68-0.99,1.27-1.65,1.79
				c-0.67,0.51-1.44,0.88-2.31,1.11c-0.49,0.13-1.03,0.22-1.61,0.27c-0.59,0.05-1.41,0.08-2.46,0.08h-7.84v11.49h-3.5v-27.14h11.72
				c1.08,0,2.08,0.04,3,0.13c0.92,0.09,1.83,0.43,2.73,1.02c0.77,0.49,1.36,1.05,1.79,1.69c0.42,0.64,0.74,1.28,0.96,1.9
				c0.22,0.63,0.35,1.2,0.4,1.73C443.14,190.33,443.17,190.72,443.17,190.97z M439.59,190.9c0-0.13-0.01-0.37-0.04-0.71
				c-0.03-0.35-0.1-0.71-0.23-1.1c-0.23-0.64-0.59-1.16-1.08-1.58c-0.49-0.41-1.05-0.7-1.69-0.88c-0.41-0.1-0.78-0.16-1.1-0.17
				c-0.32-0.01-0.69-0.02-1.1-0.02h-8.38v9.3h7.57c0.51,0,1.01,0,1.48,0c0.47,0,0.95-0.06,1.44-0.19c1.1-0.28,1.9-0.86,2.38-1.75
				C439.35,192.91,439.59,191.95,439.59,190.9z"/>
			<path class="st3" d="M482.75,210.46l-7.42-11.53h-7v11.53h-3.54v-27.14h10.11c0.44,0,0.87-0.01,1.29-0.02
				c0.42-0.01,0.85-0.01,1.29,0.02c0.95,0.05,1.77,0.15,2.48,0.31c0.7,0.15,1.32,0.35,1.84,0.59c0.53,0.24,0.98,0.53,1.36,0.85
				c0.38,0.32,0.72,0.65,1,0.98c0.36,0.44,0.72,1.07,1.1,1.9c0.37,0.83,0.56,1.93,0.56,3.29c0,0.28-0.03,0.7-0.08,1.25
				c-0.05,0.55-0.19,1.15-0.42,1.79c-0.23,0.64-0.59,1.28-1.08,1.92c-0.49,0.64-1.17,1.18-2.04,1.61c-0.33,0.18-0.69,0.34-1.08,0.48
				c-0.38,0.14-0.95,0.28-1.69,0.4l7.61,11.76H482.75z M482.25,191.26c0-0.18-0.01-0.44-0.04-0.78c-0.03-0.35-0.11-0.71-0.25-1.09
				c-0.14-0.38-0.36-0.78-0.65-1.19c-0.29-0.41-0.7-0.77-1.21-1.07c-0.72-0.43-1.48-0.67-2.29-0.71c-0.81-0.04-1.62-0.06-2.44-0.06
				h-7.03v9.53h7.23c0.51,0,1.04-0.01,1.58-0.02c0.54-0.01,1.07-0.08,1.6-0.19c0.52-0.12,1.01-0.3,1.46-0.56
				c0.45-0.26,0.85-0.61,1.21-1.07c0.31-0.43,0.53-0.88,0.65-1.34C482.19,192.26,482.25,191.77,482.25,191.26z"/>
			<path class="st3" d="M508.7,210.46v-27.14h18.68v3.19h-15.22v8.38h13.22v3.15h-13.22v9.26h15.68v3.15H508.7z"/>
			<path class="st3" d="M568.04,210.46l-14.87-22.06l0.35,22.06h-3.42v-27.14h3.42l14.68,21.75l-0.15-21.75h3.27v27.14H568.04z"/>
			<path class="st3" d="M617.81,196.93c0,0.74-0.03,1.52-0.1,2.33s-0.19,1.58-0.37,2.32c-0.13,0.49-0.33,1.12-0.61,1.9
				c-0.28,0.78-0.72,1.59-1.31,2.42s-1.36,1.62-2.31,2.36c-0.95,0.74-2.14,1.31-3.57,1.69c-0.59,0.18-1.2,0.3-1.83,0.37
				c-0.63,0.06-1.53,0.1-2.71,0.1c-0.44,0-0.87,0.01-1.31,0.02c-0.44,0.01-0.87,0.02-1.31,0.02h-6.88v-27.14h10.76
				c0.33,0,0.77,0.02,1.31,0.06c0.54,0.04,1.13,0.14,1.77,0.29c0.64,0.15,1.32,0.4,2.04,0.75c0.72,0.35,1.45,0.83,2.19,1.44
				c0.51,0.44,1.02,0.97,1.54,1.61c0.51,0.64,0.97,1.4,1.36,2.29c0.4,0.88,0.72,1.92,0.96,3.09
				C617.69,194.04,617.81,195.39,617.81,196.93z M614.16,196.89c0-1.26-0.15-2.58-0.44-3.96c-0.3-1.38-0.85-2.59-1.68-3.61
				c-0.21-0.26-0.42-0.49-0.64-0.69c-0.22-0.2-0.46-0.4-0.71-0.58c-0.51-0.36-0.97-0.62-1.37-0.79c-0.4-0.17-0.71-0.27-0.94-0.33
				c-0.31-0.1-0.62-0.18-0.92-0.23c-0.31-0.05-0.65-0.09-1.02-0.11c-0.37-0.03-0.79-0.04-1.25-0.06c-0.46-0.01-1.02-0.02-1.66-0.02
				h-4.28v20.79h6.44c0.26,0,0.62-0.02,1.1-0.06c0.48-0.04,1-0.14,1.56-0.31c0.57-0.17,1.16-0.42,1.77-0.75
				c0.62-0.33,1.18-0.81,1.7-1.42c0.62-0.69,1.16-1.66,1.64-2.9C613.92,200.63,614.16,198.97,614.16,196.89z"/>
			<path class="st3" d="M640.99,210.46v-27.14h18.68v3.19h-15.22v8.38h13.22v3.15h-13.22v9.26h15.68v3.15H640.99z"/>
			<path class="st3" d="M721.74,198.05v12.41h-3.65v-12.41l-9.53-14.72h4.27l7.15,11.49l7.23-11.49h4.3L721.74,198.05z"/>
			<path class="st3" d="M781.93,210.46v-27.14h18.68v3.19h-15.22v8.38h13.22v3.15h-13.22v9.26h15.68v3.15H781.93z"/>
			<path class="st3" d="M841.28,210.46L826.4,188.4l0.35,22.06h-3.42v-27.14h3.42l14.68,21.75l-0.15-21.75h3.27v27.14H841.28z"/>
			<path class="st3" d="M889.51,202.66c0,0.28-0.02,0.63-0.06,1.04c-0.04,0.41-0.13,0.87-0.29,1.36c-0.15,0.5-0.38,1.02-0.67,1.58
				c-0.29,0.55-0.71,1.08-1.25,1.59c-0.39,0.36-0.83,0.72-1.33,1.08c-0.5,0.36-1.1,0.67-1.79,0.94c-0.69,0.27-1.49,0.49-2.38,0.65
				c-0.9,0.17-1.92,0.25-3.08,0.25c-0.23,0-0.61-0.01-1.13-0.04c-0.53-0.03-1.13-0.1-1.83-0.21c-0.69-0.12-1.43-0.3-2.21-0.56
				c-0.78-0.26-1.53-0.61-2.25-1.08c-0.84-0.54-1.57-1.22-2.19-2.04c-0.41-0.54-0.73-1.08-0.96-1.63c-0.23-0.55-0.42-1.08-0.56-1.58
				c-0.14-0.5-0.23-0.95-0.27-1.35c-0.04-0.4-0.07-0.7-0.1-0.9l3.88-0.5c0,0.2,0.02,0.49,0.06,0.84c0.04,0.36,0.12,0.76,0.23,1.21
				c0.12,0.45,0.29,0.92,0.54,1.4s0.58,0.96,1.02,1.42c0.49,0.51,1.2,1,2.15,1.46c0.95,0.46,2.22,0.69,3.81,0.69
				c0.2,0,0.54-0.01,1-0.04c0.46-0.02,0.96-0.12,1.5-0.27c0.28-0.08,0.67-0.21,1.15-0.4c0.49-0.19,0.96-0.48,1.42-0.86
				c0.46-0.38,0.86-0.89,1.19-1.52c0.33-0.63,0.5-1.4,0.5-2.33c0-0.9-0.15-1.57-0.46-2.02c-0.31-0.45-0.61-0.8-0.92-1.06
				c-0.54-0.44-1.14-0.75-1.81-0.94c-0.67-0.19-1.32-0.35-1.96-0.48l-2.34-0.5c-0.97-0.2-1.99-0.44-3.04-0.71
				c-1.05-0.27-2.02-0.66-2.92-1.17c-0.82-0.44-1.47-0.91-1.96-1.42c-0.49-0.51-0.86-1.03-1.12-1.56c-0.26-0.52-0.42-1.03-0.5-1.52
				c-0.08-0.49-0.12-0.94-0.12-1.35c0-1.08,0.22-2.06,0.67-2.96s1.08-1.68,1.9-2.34c0.69-0.56,1.41-1,2.15-1.31
				c0.74-0.31,1.45-0.53,2.11-0.67c0.67-0.14,1.26-0.22,1.79-0.23c0.53-0.01,0.93-0.02,1.21-0.02c1.31,0,2.57,0.13,3.81,0.4
				c1.23,0.27,2.38,0.81,3.46,1.63c0.64,0.49,1.13,0.94,1.46,1.36c0.33,0.42,0.58,0.77,0.73,1.06c0.36,0.61,0.63,1.24,0.81,1.88
				c0.18,0.64,0.33,1.31,0.46,2l-3.65,0.23c-0.05-0.59-0.14-1.13-0.27-1.61c-0.13-0.49-0.35-0.97-0.65-1.46
				c-0.31-0.49-0.72-0.93-1.25-1.33c-0.53-0.4-1.19-0.72-1.98-0.98c-0.79-0.26-1.74-0.39-2.84-0.39c-0.44,0-0.9,0.03-1.38,0.08
				c-0.49,0.05-0.97,0.15-1.44,0.29c-0.47,0.14-0.92,0.33-1.35,0.56c-0.42,0.23-0.79,0.53-1.1,0.88c-0.61,0.69-0.92,1.51-0.92,2.46
				c0,0.21,0.04,0.49,0.12,0.87s0.26,0.75,0.54,1.13c0.26,0.36,0.58,0.66,0.96,0.9c0.38,0.24,0.79,0.45,1.21,0.61
				c0.42,0.17,0.86,0.3,1.31,0.4c0.45,0.1,0.86,0.2,1.25,0.31l3,0.73c0.36,0.08,0.71,0.16,1.06,0.25c0.35,0.09,0.7,0.19,1.06,0.29
				c0.2,0.05,0.54,0.14,1.02,0.27c0.47,0.13,1,0.33,1.58,0.62c0.58,0.28,1.15,0.65,1.73,1.1c0.58,0.45,1.07,1.02,1.48,1.71
				c0.2,0.33,0.42,0.8,0.65,1.4C889.4,200.9,889.51,201.68,889.51,202.66z"/>
			<path class="st3" d="M912.65,210.46v-27.14h18.68v3.19h-15.22v8.38h13.22v3.15h-13.22v9.26h15.68v3.15H912.65z"/>
			<path class="st3" d="M971.99,210.46l-14.87-22.06l0.35,22.06h-3.42v-27.14h3.42l14.68,21.75l-0.15-21.75h3.27v27.14H971.99z
				 M970.26,176.56c-0.03,0.13-0.06,0.33-0.12,0.61c-0.05,0.28-0.14,0.6-0.27,0.96c-0.05,0.13-0.13,0.32-0.25,0.58
				c-0.12,0.26-0.28,0.51-0.5,0.77c-0.22,0.26-0.49,0.48-0.83,0.67s-0.74,0.29-1.23,0.29c-0.41,0-0.85-0.08-1.31-0.23
				c-0.46-0.15-1.09-0.38-1.88-0.69c-0.44-0.18-0.77-0.3-1.02-0.37c-0.24-0.06-0.48-0.1-0.71-0.1c-0.05,0-0.11,0-0.17,0
				c-0.06,0-0.14,0.01-0.21,0.04c-0.13,0.05-0.29,0.17-0.48,0.35c-0.19,0.18-0.31,0.45-0.37,0.81h-1.85
				c0.13-0.92,0.33-1.63,0.6-2.11c0.27-0.49,0.58-0.87,0.94-1.15c0.36-0.28,0.7-0.44,1.02-0.48s0.58-0.06,0.79-0.06
				c0.67,0,1.28,0.13,1.83,0.39c0.55,0.26,1.12,0.49,1.71,0.69c0.05,0.03,0.21,0.07,0.48,0.13c0.27,0.06,0.53,0.1,0.79,0.1
				c0.26,0,0.45-0.05,0.58-0.15c0.18-0.1,0.31-0.22,0.39-0.37c0.08-0.14,0.17-0.37,0.27-0.67H970.26z"/>
			<path class="st3" d="M1017.04,210.46l-2.96-8.3h-10.34l-3.04,8.3h-3.84l10.34-27.14h3.77l9.88,27.14H1017.04z M1009.04,187.78
				l-4.15,11.34h8.11L1009.04,187.78z"/>
		</g>
	</g>
	<g>
		<g>
			<path class="st8" d="M497.13,117.03c0,2-0.27,4.97-0.81,8.9c-0.54,3.94-2.14,8.3-4.83,13.11c-3.09,5.6-6.81,10.07-11.17,13.41
				c-4.36,3.34-8.75,5.9-13.18,7.7c-4.43,1.8-8.47,3.03-12.14,3.7c-3.67,0.67-6.37,1.07-8.1,1.2c-2.27,0.27-4.6,0.5-7,0.7
				c-2.4,0.2-4.8,0.3-7.2,0.3c-7.07,0-13.38-0.54-18.91-1.6c-5.54-1.07-10.44-2.43-14.71-4.1c-4.27-1.67-8-3.5-11.21-5.5
				c-3.2-2-6-3.93-8.4-5.8c-0.93-0.8-1.8-1.57-2.6-2.3c-0.8-0.73-1.6-1.53-2.4-2.4c-0.8-0.87-1.7-1.87-2.7-3
				c-1-1.13-2.17-2.5-3.5-4.1l26.81-16.81c0.27,0.27,1,1.07,2.2,2.4c1.2,1.34,2.53,2.54,4,3.6c4.67,3.87,10.11,6.8,16.31,8.81
				c6.2,2,12.31,3,18.31,3c0.8,0,2.27-0.07,4.4-0.2c2.13-0.13,4.33-0.53,6.6-1.2c0.27,0,1.2-0.3,2.8-0.9c1.6-0.6,3.3-1.5,5.1-2.7
				c1.8-1.2,3.43-2.73,4.9-4.6c1.47-1.87,2.2-4.13,2.2-6.8c0-3.2-1.04-5.73-3.1-7.6c-2.07-1.87-4.67-3.27-7.8-4.2
				c-3.14-0.93-6.54-1.63-10.21-2.1c-3.67-0.47-7.1-0.9-10.31-1.3c-6.94-0.8-13.61-2-20.01-3.6c-5.07-1.33-9.9-3.07-14.51-5.2
				c-4.6-2.13-8.64-5.33-12.11-9.6c-0.67-0.8-1.6-2.07-2.8-3.8c-1.2-1.73-2.27-3.93-3.2-6.6c-0.27-1.07-0.64-2.67-1.1-4.8
				c-0.47-2.13-0.7-4.67-0.7-7.6c0-0.67,0.07-1.97,0.2-3.9c0.13-1.93,0.33-3.9,0.6-5.9c1.6-8.94,5.67-16.47,12.21-22.61
				c1.73-1.6,3.93-3.3,6.6-5.1c2.67-1.8,5.8-3.4,9.4-4.8c3.6-1.4,7.7-2.57,12.31-3.5c4.6-0.93,9.84-1.4,15.71-1.4
				c2.13,0,4.87,0.13,8.2,0.4c3.33,0.27,7.04,0.87,11.11,1.8c4.07,0.94,8.45,2.34,13.13,4.2c4.69,1.87,9.45,4.4,14.28,7.6
				c1.21,0.8,2.31,1.57,3.32,2.3c1.01,0.74,2.11,1.57,3.32,2.5c1.21,0.94,2.52,2.04,3.93,3.3c1.41,1.27,3.12,2.77,5.13,4.5
				L469.36,63.4c-2.01-1.87-3.89-3.57-5.63-5.1c-1.74-1.53-3.51-2.93-5.32-4.2c-1.8-1.27-3.74-2.4-5.8-3.4c-2.07-1-4.44-1.9-7.1-2.7
				c-0.93-0.27-2.6-0.67-5-1.2c-2.4-0.53-5.14-0.8-8.2-0.8c-3.6,0-6.74,0.47-9.4,1.4c-2.67,0.94-4.84,2.14-6.5,3.6
				c-1.67,1.47-2.94,3.1-3.8,4.9c-0.87,1.8-1.3,3.5-1.3,5.1c0,1.87,0.37,3.44,1.1,4.7c0.73,1.27,1.37,2.17,1.9,2.7
				c1.2,1.34,2.6,2.33,4.2,3c1.6,0.67,3.43,1.23,5.5,1.7c2.07,0.47,4.43,0.83,7.1,1.1c2.67,0.27,5.67,0.67,9,1.2
				c4,0.67,7.97,1.37,11.91,2.1c3.93,0.73,7.84,1.57,11.72,2.5c1.21,0.27,3.15,0.73,5.84,1.4c2.68,0.67,5.57,1.8,8.65,3.4
				c3.09,1.6,6.07,3.77,8.96,6.5c2.88,2.74,5.27,6.24,7.14,10.51c0.53,1.34,1.14,3.3,1.81,5.9
				C496.79,110.33,497.13,113.43,497.13,117.03z"/>
			<path class="st8" d="M604.78,162.85l-37.62-64.03l-21.81,22.61v41.42h-33.62V21.58h33.62v57.63l52.83-57.63h42.62l-50.03,52.43
				l53.83,88.85H604.78z"/>
			<path class="st8" d="M647.2,162.85V21.58h35.22v141.27H647.2z"/>
			<path class="st8" d="M704.03,162.85V21.58h35.22v111.46h55.23v29.82H704.03z"/>
			<path class="st8" d="M806.48,162.85V21.58h35.22v111.46h55.23v29.82H806.48z"/>
			<path class="st8" d="M1025.99,117.03c0,2-0.27,4.97-0.81,8.9c-0.54,3.94-2.14,8.3-4.83,13.11c-3.09,5.6-6.81,10.07-11.17,13.41
				c-4.36,3.34-8.75,5.9-13.17,7.7c-4.43,1.8-8.47,3.03-12.14,3.7c-3.67,0.67-6.37,1.07-8.1,1.2c-2.27,0.27-4.6,0.5-7,0.7
				c-2.4,0.2-4.8,0.3-7.2,0.3c-7.07,0-13.37-0.54-18.91-1.6c-5.54-1.07-10.44-2.43-14.71-4.1c-4.27-1.67-8-3.5-11.2-5.5
				c-3.2-2-6-3.93-8.4-5.8c-0.94-0.8-1.8-1.57-2.6-2.3c-0.8-0.73-1.6-1.53-2.4-2.4c-0.8-0.87-1.7-1.87-2.7-3
				c-1-1.13-2.17-2.5-3.5-4.1l26.81-16.81c0.27,0.27,1,1.07,2.2,2.4c1.2,1.34,2.53,2.54,4,3.6c4.67,3.87,10.1,6.8,16.31,8.81
				c6.2,2,12.31,3,18.31,3c0.8,0,2.27-0.07,4.4-0.2c2.13-0.13,4.33-0.53,6.6-1.2c0.27,0,1.2-0.3,2.8-0.9c1.6-0.6,3.3-1.5,5.1-2.7
				c1.8-1.2,3.43-2.73,4.9-4.6c1.47-1.87,2.2-4.13,2.2-6.8c0-3.2-1.03-5.73-3.1-7.6c-2.07-1.87-4.67-3.27-7.8-4.2
				c-3.14-0.93-6.54-1.63-10.21-2.1c-3.67-0.47-7.1-0.9-10.31-1.3c-6.94-0.8-13.61-2-20.01-3.6c-5.07-1.33-9.9-3.07-14.51-5.2
				c-4.6-2.13-8.64-5.33-12.11-9.6c-0.67-0.8-1.6-2.07-2.8-3.8c-1.2-1.73-2.27-3.93-3.2-6.6c-0.27-1.07-0.63-2.67-1.1-4.8
				c-0.47-2.13-0.7-4.67-0.7-7.6c0-0.67,0.07-1.97,0.2-3.9c0.13-1.93,0.33-3.9,0.6-5.9c1.6-8.94,5.67-16.47,12.21-22.61
				c1.73-1.6,3.93-3.3,6.6-5.1c2.67-1.8,5.8-3.4,9.41-4.8c3.6-1.4,7.7-2.57,12.31-3.5c4.6-0.93,9.84-1.4,15.71-1.4
				c2.13,0,4.87,0.13,8.2,0.4c3.33,0.27,7.03,0.87,11.11,1.8c4.07,0.94,8.44,2.34,13.13,4.2c4.69,1.87,9.45,4.4,14.28,7.6
				c1.21,0.8,2.31,1.57,3.32,2.3c1.01,0.74,2.11,1.57,3.32,2.5c1.21,0.94,2.52,2.04,3.93,3.3c1.41,1.27,3.12,2.77,5.13,4.5
				L998.22,63.4c-2.01-1.87-3.89-3.57-5.63-5.1c-1.74-1.53-3.51-2.93-5.32-4.2c-1.8-1.27-3.74-2.4-5.8-3.4c-2.07-1-4.44-1.9-7.1-2.7
				c-0.94-0.27-2.6-0.67-5-1.2c-2.4-0.53-5.14-0.8-8.2-0.8c-3.6,0-6.74,0.47-9.4,1.4c-2.67,0.94-4.84,2.14-6.5,3.6
				c-1.67,1.47-2.94,3.1-3.8,4.9c-0.87,1.8-1.3,3.5-1.3,5.1c0,1.87,0.37,3.44,1.1,4.7c0.73,1.27,1.37,2.17,1.9,2.7
				c1.2,1.34,2.6,2.33,4.2,3c1.6,0.67,3.43,1.23,5.5,1.7c2.07,0.47,4.43,0.83,7.1,1.1c2.67,0.27,5.67,0.67,9.01,1.2
				c4,0.67,7.97,1.37,11.91,2.1c3.93,0.73,7.84,1.57,11.72,2.5c1.21,0.27,3.16,0.73,5.84,1.4c2.68,0.67,5.57,1.8,8.65,3.4
				c3.09,1.6,6.07,3.77,8.96,6.5c2.88,2.74,5.27,6.24,7.14,10.51c0.53,1.34,1.14,3.3,1.81,5.9
				C1025.65,110.33,1025.99,113.43,1025.99,117.03z"/>
		</g>
		<path class="st3" d="M108.98,111.23h31.55c-0.13,0.67-0.4,2.2-0.8,4.59c-0.4,2.4-1.13,4.73-2.2,6.99
			c-1.07,2.13-2.33,3.96-3.79,5.49c-1.47,1.53-2.96,2.8-4.49,3.79c-1.53,1-2.96,1.8-4.29,2.4c-1.33,0.6-2.33,1.03-2.99,1.3
			c-2.67,0.93-5.06,1.47-7.19,1.6c-2.13,0.13-3.79,0.2-4.99,0.2c-3.99,0-7.49-0.46-10.48-1.4c-3-0.93-5.16-1.73-6.49-2.4
			c-0.93-0.53-2.4-1.4-4.39-2.6c-2-1.2-3.93-2.93-5.79-5.19c-2.4-2.93-4.26-6.26-5.59-9.98c-1.33-3.73-2.3-7.29-2.9-10.68
			c-0.6-3.4-0.97-6.39-1.1-8.99c-0.13-2.59-0.2-4.29-0.2-5.09c0-5.59,0.53-10.58,1.6-14.98c1.06-4.39,2.43-8.25,4.09-11.58
			c1.66-3.33,3.53-6.12,5.59-8.39c2.06-2.26,4.16-4.06,6.29-5.39c1.86-1.2,3.79-2.13,5.79-2.8c2-0.66,3.89-1.16,5.69-1.5
			c1.8-0.33,3.4-0.53,4.79-0.6c1.4-0.07,2.43-0.1,3.1-0.1c0.93,0,2.3,0.07,4.09,0.2c1.8,0.13,3.76,0.47,5.89,1
			c2.13,0.53,4.39,1.4,6.79,2.6c2.4,1.2,4.72,2.8,6.99,4.79c1.06,0.93,2.13,2,3.19,3.2c1.06,1.2,2,2.37,2.8,3.49
			c0.8,1.13,1.46,2.1,2,2.9c0.53,0.8,0.86,1.33,1,1.6l26.76-16.17c-2-2.66-3.89-5.03-5.69-7.09c-1.8-2.06-3.96-4.23-6.49-6.49
			c-1.87-1.6-4.26-3.49-7.19-5.69c-2.93-2.2-6.46-4.29-10.58-6.29c-4.13-2-8.89-3.66-14.28-4.99c-5.39-1.33-11.35-2-17.87-2
			c-8.65,0-15.87,1.07-21.67,3.2c-5.79,2.13-10.15,4.06-13.08,5.79c-5.46,3.06-10.12,6.59-13.98,10.58
			c-3.86,3.99-7.06,8.16-9.59,12.48c-2.53,4.33-4.56,8.69-6.09,13.08c-1.53,4.39-2.67,8.52-3.4,12.38c-0.73,3.86-1.2,7.36-1.4,10.48
			c-0.2,3.13-0.3,5.56-0.3,7.29c0,6.79,0.7,13.55,2.1,20.27c1.4,6.72,3.56,13.08,6.49,19.07c2.93,5.99,6.69,11.45,11.28,16.37
			c4.59,4.93,10.08,8.92,16.48,11.98c5.99,2.8,11.38,4.49,16.18,5.09c4.79,0.6,8.45,0.9,10.98,0.9c1.33,0,3.2-0.07,5.59-0.2
			c2.4-0.13,5.06-0.5,7.99-1.1c2.93-0.6,6.06-1.5,9.39-2.7c3.33-1.2,6.66-2.93,9.99-5.19c2-1.33,4.86-3.66,8.59-6.99v12.98h27.56
			V84.47h-61.31V111.23z"/>
		<polygon class="st3" points="216.81,101.44 281.32,101.44 281.32,74.68 216.81,74.68 216.81,48.92 285.91,48.92 285.91,21.76 
			181.67,21.76 181.67,162.75 292.3,162.75 292.3,134.99 216.81,134.99 		"/>
		<polygon class="st3" points="333.63,21.76 299.09,21.76 299.09,162.75 333.04,162.75 331.84,75.48 361.11,126.11 385.26,111 		"/>
	</g>
</g>
</svg>
