<?xml version="1.0" encoding="utf-8"?>
<!-- Generator: Adobe Illustrator 28.1.0, SVG Export Plug-In . SVG Version: 6.00 Build 0)  -->
<svg version="1.1" id="Layer_1" xmlns="http://www.w3.org/2000/svg" xmlns:xlink="http://www.w3.org/1999/xlink" x="0px" y="0px"
	 viewBox="0 0 1063.68 228.12" style="enable-background:new 0 0 1063.68 228.12;" xml:space="preserve">
<style type="text/css">
	.st0{fill:#346783;}
	.st1{fill:#3D857B;}
	.st2{fill:#133851;}
	.st3{fill:#FFFFFF;}
	.st4{fill:#FB8F00;}
	.st5{fill:#346786;}
	.st6{fill:#808285;}
	.st7{fill:#6D6E71;}
	.st8{fill:#003A58;}
	.st9{fill:#231F20;}
	.st10{fill:#8F9194;}
	.st11{fill:#FE9200;}
	.st12{fill:#7C7C7C;}
	.st13{fill:#01678A;}
	.st14{fill:#808082;}
	.st15{fill:#CDCFD0;}
	.st16{fill:#E3E4E5;}
</style>
<g>
	<g>
		<path class="st0" d="M171.12,203.08v-16.21c-4.66,4.16-8.23,7.07-10.72,8.73c-4.16,2.83-8.31,4.99-12.47,6.48
			c-4.16,1.5-8.07,2.62-11.72,3.37c-3.66,0.75-6.98,1.2-9.97,1.37c-2.99,0.16-5.32,0.25-6.98,0.25c-3.16,0-7.73-0.37-13.72-1.12
			c-5.98-0.75-12.72-2.87-20.2-6.36c-7.98-3.82-14.84-8.81-20.57-14.96c-5.74-6.15-10.43-12.97-14.09-20.45
			c-3.66-7.48-6.36-15.42-8.1-23.81c-1.75-8.39-2.62-16.83-2.62-25.31c0-2.16,0.12-5.19,0.37-9.1c0.25-3.9,0.83-8.27,1.75-13.09
			c0.91-4.82,2.33-9.97,4.24-15.46c1.91-5.49,4.45-10.93,7.61-16.33c3.16-5.4,7.15-10.6,11.97-15.59
			c4.82-4.99,10.64-9.39,17.46-13.22c3.65-2.16,9.1-4.57,16.33-7.23c7.23-2.66,16.25-3.99,27.06-3.99c8.14,0,15.59,0.83,22.32,2.49
			c6.73,1.66,12.67,3.74,17.83,6.23c5.15,2.49,9.56,5.11,13.22,7.85c3.65,2.74,6.65,5.11,8.98,7.11c3.16,2.83,5.86,5.53,8.1,8.11
			c2.24,2.58,4.61,5.53,7.11,8.85l-33.41,20.2c-0.17-0.33-0.58-1-1.25-2c-0.67-1-1.5-2.2-2.49-3.62c-1-1.41-2.16-2.87-3.49-4.36
			c-1.33-1.5-2.66-2.82-3.99-3.99c-2.83-2.49-5.74-4.49-8.73-5.99c-2.99-1.5-5.82-2.58-8.48-3.24c-2.66-0.66-5.11-1.08-7.36-1.25
			c-2.24-0.16-3.95-0.25-5.11-0.25c-0.83,0-2.12,0.04-3.87,0.12c-1.75,0.08-3.74,0.33-5.98,0.75c-2.24,0.42-4.61,1.04-7.11,1.87
			c-2.49,0.83-4.91,2-7.23,3.49c-2.66,1.66-5.28,3.91-7.86,6.73c-2.58,2.83-4.91,6.32-6.98,10.47c-2.08,4.16-3.78,8.98-5.11,14.46
			c-1.33,5.49-2,11.72-2,18.7c0,1,0.08,3.12,0.25,6.36c0.16,3.24,0.62,6.98,1.37,11.22c0.75,4.24,1.95,8.69,3.62,13.34
			c1.66,4.66,3.99,8.81,6.98,12.47c2.33,2.83,4.74,4.99,7.23,6.48c2.49,1.5,4.32,2.58,5.49,3.24c1.66,0.83,4.36,1.83,8.1,2.99
			c3.74,1.17,8.1,1.75,13.09,1.75c1.5,0,3.57-0.08,6.23-0.25c2.66-0.16,5.65-0.83,8.98-2c0.83-0.33,2.08-0.87,3.74-1.62
			c1.66-0.75,3.45-1.75,5.36-2.99c1.91-1.25,3.78-2.82,5.61-4.74c1.83-1.91,3.41-4.2,4.74-6.86c1.33-2.82,2.24-5.74,2.74-8.73
			s0.83-4.9,1-5.73h-39.4v-33.42h76.55v97.75H171.12z"/>
		<path class="st0" d="M219.75,203.08V27.03h130.17v33.91h-86.28v32.17h80.55v33.42h-80.55v41.89h94.26v34.66H219.75z"/>
		<path class="st0" d="M471.11,203.08L407.27,94.11l1.5,108.97h-42.39V27.03h43.14l64.34,110.47L472.1,27.03h42.14v176.05H471.11z"
			/>
	</g>
	<g>
		<path class="st10" d="M531.45,203.08v-30.72h29.07v30.72H531.45z"/>
		<path class="st10" d="M631.52,98.78v104.3h-32.75V98.78h-33.85V73.21h100.26v25.57H631.52z"/>
		<path class="st10" d="M674.02,203.08V73.21h96.03v25.02h-63.65v23.73h59.42v24.65h-59.42v30.91h69.54v25.57H674.02z"/>
		<path class="st10" d="M900.28,173.65c-3.68,5.64-6.5,9.63-8.46,11.96c-1.47,1.72-3.59,3.77-6.35,6.16
			c-2.76,2.39-6.13,4.72-10.12,6.99c-3.99,2.27-8.55,4.2-13.7,5.79c-5.15,1.59-10.92,2.39-17.29,2.39c-2.33,0-5.92-0.31-10.76-0.92
			c-4.85-0.62-10.09-2.15-15.73-4.6c-5.77-2.58-10.64-5.7-14.62-9.38c-3.99-3.68-7.3-7.57-9.93-11.68
			c-2.64-4.11-4.72-8.31-6.25-12.6c-1.53-4.29-2.67-8.37-3.4-12.23c-0.74-3.86-1.2-7.33-1.38-10.39c-0.18-3.07-0.28-5.46-0.28-7.17
			c0-1.96,0.12-4.63,0.37-8c0.24-3.37,0.89-7.14,1.93-11.31c1.04-4.17,2.64-8.58,4.78-13.25c2.14-4.66,5.06-9.26,8.74-13.8
			c1.47-1.84,3.5-4.05,6.07-6.62c2.58-2.58,5.8-5.03,9.66-7.36c3.86-2.33,8.4-4.32,13.61-5.98c5.21-1.66,11.13-2.48,17.75-2.48
			c8.83,0,17.23,1.72,25.2,5.15c7.97,3.44,14.84,8.46,20.6,15.09c2.45,2.82,4.41,5.49,5.89,8c1.47,2.51,2.51,4.32,3.13,5.43
			l-25.57,12.69c-0.98-1.84-1.78-3.31-2.39-4.41c-0.62-1.1-1.23-2.02-1.84-2.76c-0.62-0.86-1.56-1.99-2.85-3.4
			c-1.29-1.41-2.91-2.79-4.88-4.14c-1.96-1.35-4.26-2.51-6.9-3.49c-2.64-0.98-5.61-1.47-8.92-1.47c-0.98,0-2.21,0.06-3.68,0.18
			c-1.47,0.12-3.07,0.46-4.78,1.01c-1.72,0.55-3.56,1.35-5.52,2.39c-1.96,1.04-3.86,2.42-5.7,4.14c-1.35,1.23-2.76,2.85-4.23,4.88
			c-1.47,2.02-2.79,4.41-3.96,7.17c-1.17,2.76-2.15,5.95-2.94,9.57c-0.8,3.62-1.2,7.63-1.2,12.05c0,0.86,0.03,2.02,0.09,3.49
			c0.06,1.47,0.21,3.25,0.46,5.34c0.49,4.41,1.35,8.28,2.58,11.59c1.22,3.31,2.6,6.16,4.14,8.56c1.53,2.39,3.19,4.39,4.97,5.98
			c1.78,1.6,3.59,2.88,5.43,3.86c1.22,0.74,3.04,1.53,5.43,2.39c2.39,0.86,5.36,1.29,8.92,1.29c4.54,0,8.43-0.76,11.68-2.3
			c3.25-1.53,5.98-3.34,8.19-5.43c2.21-2.08,3.95-4.2,5.24-6.35c1.29-2.15,2.3-3.83,3.04-5.06L900.28,173.65z"/>
		<path class="st10" d="M991.34,203.08v-55.37H943.7v55.37h-32.75V73.21h32.93v46.91h47.46V73.21h32.38v129.87H991.34z"/>
	</g>
	<g>
		<path class="st10" d="M588.92,43.13c-0.23,0.56-0.46,1.06-0.71,1.53c-0.25,0.46-0.55,0.93-0.92,1.4
			c-0.25,0.33-0.59,0.71-1.02,1.13c-0.43,0.42-0.97,0.82-1.6,1.2c-0.64,0.38-1.38,0.7-2.23,0.97c-0.85,0.27-1.82,0.4-2.91,0.4
			c-0.37,0-0.96-0.05-1.76-0.14c-0.8-0.09-1.67-0.35-2.62-0.79c-0.62-0.29-1.26-0.7-1.94-1.23c-0.68-0.53-1.3-1.23-1.88-2.08
			c-0.58-0.85-1.05-1.87-1.42-3.07c-0.37-1.19-0.56-2.59-0.56-4.19c0-0.29,0.01-0.69,0.03-1.2c0.02-0.51,0.09-1.09,0.22-1.74
			c0.12-0.65,0.32-1.33,0.6-2.05c0.28-0.72,0.66-1.44,1.16-2.16c0.27-0.37,0.63-0.8,1.08-1.29c0.45-0.49,1.02-0.96,1.7-1.39
			c0.68-0.43,1.47-0.8,2.39-1.09c0.91-0.3,1.97-0.45,3.16-0.45c1.05,0,1.97,0.11,2.77,0.34c0.8,0.23,1.5,0.51,2.1,0.86
			c0.6,0.35,1.09,0.72,1.49,1.13c0.4,0.4,0.72,0.78,0.97,1.13c0.35,0.53,0.64,1.07,0.88,1.6c0.24,0.53,0.45,1.09,0.63,1.66
			l-4.04,1.05c-0.02-0.14-0.07-0.37-0.14-0.69c-0.07-0.32-0.21-0.66-0.42-1.03c-0.41-0.78-1-1.37-1.76-1.76
			c-0.76-0.39-1.57-0.57-2.44-0.55c-0.62,0-1.13,0.07-1.56,0.22c-0.42,0.14-0.75,0.27-0.97,0.37c-0.41,0.21-0.82,0.49-1.22,0.86
			c-0.4,0.37-0.77,0.84-1.11,1.4c-0.34,0.57-0.61,1.24-0.82,2.02c-0.21,0.78-0.31,1.67-0.31,2.68c0,0.16,0.01,0.43,0.03,0.8
			c0.02,0.37,0.07,0.8,0.15,1.28c0.08,0.48,0.21,0.99,0.39,1.53c0.17,0.53,0.42,1.05,0.72,1.54c0.45,0.68,0.98,1.21,1.57,1.6
			c0.66,0.45,1.28,0.73,1.86,0.83s1.02,0.15,1.31,0.15c0.86,0,1.61-0.16,2.25-0.49c0.64-0.33,1.22-0.82,1.76-1.48
			c0.23-0.27,0.42-0.53,0.57-0.8c0.15-0.27,0.25-0.44,0.29-0.52c0.06-0.14,0.12-0.29,0.17-0.43s0.13-0.36,0.23-0.65L588.92,43.13z"
			/>
		<path class="st10" d="M616.23,49.2l-4.28-8.07h-3.67v8.07h-4.04V27.44h8.91c0.25,0,0.6,0.02,1.06,0.06s0.97,0.14,1.51,0.31
			c0.54,0.16,1.1,0.43,1.68,0.79c0.58,0.36,1.11,0.86,1.6,1.49c0.31,0.41,0.56,0.83,0.74,1.26c0.18,0.43,0.32,0.84,0.4,1.22
			c0.08,0.38,0.13,0.72,0.15,1.03c0.02,0.31,0.03,0.56,0.03,0.74c0,0.16-0.02,0.48-0.06,0.95c-0.04,0.47-0.15,0.97-0.34,1.48
			c-0.08,0.23-0.22,0.5-0.4,0.83c-0.18,0.33-0.43,0.66-0.74,1c-0.31,0.34-0.69,0.66-1.14,0.97c-0.45,0.31-0.99,0.56-1.6,0.74
			l4.84,8.88H616.23z M616.2,34.31c0-0.14-0.01-0.32-0.03-0.54c-0.02-0.22-0.08-0.45-0.17-0.69c-0.09-0.25-0.23-0.5-0.4-0.76
			s-0.43-0.5-0.75-0.72c-0.35-0.23-0.77-0.39-1.25-0.49c-0.48-0.1-1.16-0.15-2.02-0.15h-3.3v6.78h1.45c1.19,0,2.17-0.02,2.94-0.06
			s1.4-0.2,1.89-0.46c0.14-0.08,0.31-0.19,0.51-0.34c0.2-0.14,0.37-0.33,0.54-0.57c0.16-0.24,0.3-0.52,0.42-0.85
			C616.14,35.13,616.2,34.75,616.2,34.31z"/>
		<path class="st10" d="M636.38,49.2V27.44h15.47v3.67h-11.46v5.08h10.51v3.51h-10.51v5.83h12.23v3.67H636.38z"/>
		<path class="st10" d="M680.82,49.2l-1.26-4.25h-8.17l-1.26,4.25h-4.38l7.37-21.76h4.62l7.43,21.76H680.82z M675.49,31.36
			l-3.02,10.02h6.01L675.49,31.36z"/>
		<path class="st10" d="M730.62,40.6v8.6h-4.04v-8.6l-7.27-13.16h4.62l4.72,9l4.75-9h4.56L730.62,40.6z"/>
		<path class="st10" d="M792.5,43.13c-0.23,0.56-0.46,1.06-0.71,1.53c-0.25,0.46-0.55,0.93-0.92,1.4c-0.25,0.33-0.59,0.71-1.02,1.13
			c-0.43,0.42-0.97,0.82-1.6,1.2c-0.64,0.38-1.38,0.7-2.23,0.97c-0.85,0.27-1.82,0.4-2.91,0.4c-0.37,0-0.96-0.05-1.76-0.14
			c-0.8-0.09-1.67-0.35-2.62-0.79c-0.62-0.29-1.26-0.7-1.94-1.23c-0.68-0.53-1.3-1.23-1.88-2.08c-0.58-0.85-1.05-1.87-1.42-3.07
			c-0.37-1.19-0.56-2.59-0.56-4.19c0-0.29,0.01-0.69,0.03-1.2c0.02-0.51,0.09-1.09,0.22-1.74s0.32-1.33,0.6-2.05
			c0.28-0.72,0.66-1.44,1.16-2.16c0.27-0.37,0.63-0.8,1.08-1.29c0.45-0.49,1.02-0.96,1.7-1.39c0.68-0.43,1.47-0.8,2.39-1.09
			c0.91-0.3,1.97-0.45,3.16-0.45c1.05,0,1.97,0.11,2.77,0.34c0.8,0.23,1.5,0.51,2.1,0.86c0.6,0.35,1.09,0.72,1.49,1.13
			c0.4,0.4,0.72,0.78,0.97,1.13c0.35,0.53,0.64,1.07,0.88,1.6c0.24,0.53,0.45,1.09,0.63,1.66l-4.04,1.05
			c-0.02-0.14-0.07-0.37-0.14-0.69c-0.07-0.32-0.21-0.66-0.42-1.03c-0.41-0.78-1-1.37-1.76-1.76c-0.76-0.39-1.57-0.57-2.44-0.55
			c-0.62,0-1.13,0.07-1.56,0.22c-0.42,0.14-0.75,0.27-0.97,0.37c-0.41,0.21-0.82,0.49-1.22,0.86c-0.4,0.37-0.77,0.84-1.11,1.4
			c-0.34,0.57-0.61,1.24-0.82,2.02c-0.21,0.78-0.31,1.67-0.31,2.68c0,0.16,0.01,0.43,0.03,0.8c0.02,0.37,0.07,0.8,0.15,1.28
			c0.08,0.48,0.21,0.99,0.39,1.53c0.17,0.53,0.42,1.05,0.72,1.54c0.45,0.68,0.98,1.21,1.57,1.6c0.66,0.45,1.28,0.73,1.86,0.83
			s1.02,0.15,1.31,0.15c0.86,0,1.61-0.16,2.25-0.49c0.64-0.33,1.22-0.82,1.76-1.48c0.23-0.27,0.42-0.53,0.57-0.8
			c0.15-0.27,0.25-0.44,0.29-0.52c0.06-0.14,0.12-0.29,0.17-0.43s0.13-0.36,0.23-0.65L792.5,43.13z"/>
		<path class="st10" d="M827.67,38.32c0,0.35-0.02,0.83-0.06,1.45c-0.04,0.62-0.16,1.3-0.37,2.06c-0.21,0.76-0.51,1.56-0.91,2.39
			c-0.4,0.83-0.96,1.64-1.68,2.42c-0.12,0.12-0.29,0.29-0.51,0.51c-0.22,0.22-0.48,0.44-0.79,0.68s-0.66,0.47-1.06,0.69
			c-0.4,0.23-0.85,0.43-1.34,0.62c-0.35,0.12-0.84,0.26-1.46,0.4c-0.63,0.14-1.4,0.22-2.33,0.22c-1.54,0-2.91-0.27-4.11-0.8
			c-1.2-0.53-2.32-1.39-3.34-2.56c-1.03-1.17-1.77-2.42-2.22-3.76c-0.45-1.33-0.68-2.76-0.68-4.28c0-0.35,0.03-0.91,0.09-1.68
			c0.06-0.77,0.25-1.62,0.55-2.54c0.35-1.09,0.84-2.08,1.46-2.97c0.63-0.89,1.37-1.65,2.22-2.28c0.85-0.63,1.79-1.11,2.82-1.46
			c1.03-0.35,2.13-0.52,3.3-0.52c1.05,0,1.99,0.12,2.84,0.37c0.84,0.25,1.58,0.55,2.22,0.91c0.64,0.36,1.18,0.74,1.62,1.14
			c0.44,0.4,0.79,0.75,1.03,1.03c0.29,0.33,0.59,0.73,0.91,1.22c0.32,0.48,0.61,1.05,0.88,1.71c0.27,0.66,0.49,1.4,0.66,2.23
			C827.58,36.33,827.67,37.27,827.67,38.32z M823.57,38.75c0.02-0.9-0.07-1.81-0.26-2.73c-0.2-0.91-0.54-1.76-1.03-2.54
			c-0.58-0.92-1.28-1.63-2.13-2.13c-0.84-0.49-1.82-0.74-2.93-0.74c-0.68,0-1.25,0.08-1.73,0.25c-0.47,0.16-0.82,0.3-1.05,0.4
			c-0.39,0.2-0.79,0.49-1.19,0.86c-0.4,0.37-0.77,0.83-1.11,1.39c-0.34,0.56-0.62,1.22-0.83,2C811.1,36.3,811,37.19,811,38.2
			c0,0.2,0.01,0.58,0.05,1.14c0.03,0.55,0.14,1.17,0.34,1.85c0.19,0.68,0.5,1.37,0.92,2.06c0.42,0.7,1.01,1.29,1.77,1.79
			c0.66,0.43,1.28,0.69,1.88,0.79c0.6,0.09,1.04,0.14,1.33,0.14c0.23,0,0.56-0.03,1.02-0.08c0.45-0.05,0.94-0.2,1.48-0.45
			c0.39-0.18,0.81-0.45,1.25-0.79s0.85-0.77,1.22-1.31c0.37-0.53,0.68-1.18,0.92-1.93C823.41,40.67,823.55,39.78,823.57,38.75z"/>
		<path class="st10" d="M860.03,49.2l0.4-17.87l-4.72,17.87h-3.67l-4.71-17.87l0.4,17.87h-3.98V27.44h5.92l4.25,16.15l4.19-16.15
			H864V49.2H860.03z"/>
		<path class="st10" d="M897.47,34.68c0,0.84-0.1,1.59-0.29,2.25c-0.19,0.66-0.44,1.22-0.72,1.69c-0.29,0.47-0.6,0.87-0.94,1.19
			c-0.34,0.32-0.65,0.57-0.94,0.75c-0.94,0.6-1.92,0.95-2.92,1.06c-1,0.11-2.04,0.17-3.1,0.17h-3.17v7.4h-4.1V27.44h7.33
			c0.27,0,0.53,0,0.79-0.01c0.26-0.01,0.52,0,0.79,0.01c0.25,0.02,0.59,0.06,1.02,0.11c0.43,0.05,0.91,0.16,1.43,0.32
			c0.52,0.16,1.06,0.41,1.62,0.74c0.55,0.33,1.08,0.78,1.57,1.36c0.39,0.45,0.69,0.91,0.91,1.39c0.22,0.47,0.38,0.92,0.49,1.34
			c0.11,0.42,0.18,0.81,0.2,1.16C897.46,34.2,897.47,34.48,897.47,34.68z M893.28,34.56c0-0.35-0.04-0.7-0.12-1.05
			c-0.08-0.35-0.2-0.68-0.37-0.99c-0.22-0.39-0.5-0.7-0.83-0.92s-0.69-0.38-1.07-0.48c-0.39-0.09-0.79-0.15-1.2-0.17
			c-0.41-0.02-0.81-0.03-1.2-0.03h-3.1v7.55h2.92c0.14,0,0.29-0.01,0.43-0.02s0.29-0.01,0.43-0.01c1.04-0.04,1.83-0.21,2.35-0.51
			c0.52-0.3,0.92-0.66,1.18-1.09c0.1-0.18,0.22-0.47,0.37-0.86S893.28,35.12,893.28,34.56z"/>
		<path class="st10" d="M925.61,49.2l-1.26-4.25h-8.17l-1.26,4.25h-4.38l7.37-21.76h4.62l7.43,21.76H925.61z M920.27,31.36
			l-3.02,10.02h6.01L920.27,31.36z"/>
		<path class="st10" d="M957.07,49.2l-4.28-8.07h-3.67v8.07h-4.04V27.44h8.91c0.25,0,0.6,0.02,1.06,0.06s0.97,0.14,1.51,0.31
			c0.54,0.16,1.1,0.43,1.68,0.79c0.58,0.36,1.11,0.86,1.6,1.49c0.31,0.41,0.56,0.83,0.74,1.26c0.18,0.43,0.32,0.84,0.4,1.22
			c0.08,0.38,0.13,0.72,0.15,1.03c0.02,0.31,0.03,0.56,0.03,0.74c0,0.16-0.02,0.48-0.06,0.95c-0.04,0.47-0.15,0.97-0.34,1.48
			c-0.08,0.23-0.22,0.5-0.4,0.83c-0.18,0.33-0.43,0.66-0.74,1c-0.31,0.34-0.69,0.66-1.14,0.97c-0.45,0.31-0.99,0.56-1.6,0.74
			l4.84,8.88H957.07z M957.04,34.31c0-0.14-0.01-0.32-0.03-0.54c-0.02-0.22-0.08-0.45-0.17-0.69c-0.09-0.25-0.23-0.5-0.4-0.76
			c-0.17-0.26-0.43-0.5-0.75-0.72c-0.35-0.23-0.77-0.39-1.25-0.49c-0.48-0.1-1.16-0.15-2.02-0.15h-3.3v6.78h1.45
			c1.19,0,2.17-0.02,2.94-0.06c0.77-0.04,1.4-0.2,1.89-0.46c0.14-0.08,0.31-0.19,0.51-0.34s0.37-0.33,0.54-0.57
			c0.16-0.24,0.3-0.52,0.42-0.85C956.98,35.13,957.04,34.75,957.04,34.31z"/>
		<path class="st10" d="M985.51,31.11V49.2h-4.1V31.11h-5.92v-3.67h16.03v3.67H985.51z"/>
		<path class="st10" d="M1006.87,49.2V27.44h15.47v3.67h-11.46v5.08h10.51v3.51h-10.51v5.83h12.24v3.67H1006.87z"/>
	</g>
</g>
</svg>
