<?xml version="1.0" encoding="utf-8"?>
<!-- Generator: Adobe Illustrator 28.1.0, SVG Export Plug-In . SVG Version: 6.00 Build 0)  -->
<svg version="1.1" id="Layer_1" xmlns="http://www.w3.org/2000/svg" xmlns:xlink="http://www.w3.org/1999/xlink" x="0px" y="0px"
	 viewBox="0 0 1464.34 351.19" style="enable-background:new 0 0 1464.34 351.19;" xml:space="preserve">
<style type="text/css">
	.st0{fill:#346783;}
	.st1{fill:#3D857B;}
	.st2{fill:#133851;}
	.st3{fill:#FFFFFF;}
	.st4{fill:#FB8F00;}
	.st5{fill:#346786;}
	.st6{fill:#808285;}
	.st7{fill:#6D6E71;}
	.st8{fill:#003A58;}
	.st9{fill:#231F20;}
	.st10{fill:#8F9194;}
	.st11{fill:#FE9200;}
	.st12{fill:#7C7C7C;}
	.st13{fill:#01678A;}
	.st14{fill:#808082;}
	.st15{fill:#CDCFD0;}
	.st16{fill:#E3E4E5;}
</style>
<g>
	<g>
		<g>
			<path class="st4" d="M305.16,322.01l-4.24-11.88h-14.8l-4.35,11.88h-5.5l14.8-38.84h5.39l14.14,38.84H305.16z M293.72,289.55
				l-5.94,16.23h11.61L293.72,289.55z"/>
			<path class="st4" d="M371.12,294.12c0,1.25-0.16,2.45-0.47,3.6c-0.31,1.15-0.78,2.22-1.4,3.19c-0.62,0.97-1.41,1.82-2.37,2.56
				c-0.95,0.73-2.05,1.26-3.3,1.59c-0.7,0.18-1.47,0.31-2.31,0.38c-0.84,0.08-2.02,0.11-3.52,0.11h-11.22v16.45h-5.01v-38.84h16.78
				c1.54,0,2.97,0.07,4.29,0.19c1.32,0.13,2.62,0.62,3.91,1.46c1.1,0.7,1.95,1.5,2.56,2.42c0.61,0.92,1.06,1.82,1.38,2.72
				c0.31,0.9,0.5,1.72,0.58,2.48C371.09,293.19,371.12,293.75,371.12,294.12z M366.01,294.01c0-0.18-0.02-0.52-0.06-1.02
				c-0.04-0.49-0.15-1.02-0.33-1.57c-0.33-0.92-0.84-1.67-1.54-2.26c-0.7-0.59-1.5-1.01-2.42-1.27c-0.59-0.15-1.11-0.23-1.57-0.25
				c-0.46-0.02-0.98-0.03-1.57-0.03h-11.99v13.31h10.84c0.73,0,1.44,0,2.12,0c0.68,0,1.37-0.09,2.06-0.27
				c1.58-0.4,2.71-1.24,3.41-2.5C365.66,296.89,366.01,295.51,366.01,294.01z"/>
			<path class="st4" d="M427.79,322.01l-10.62-16.5h-10.01v16.5h-5.06v-38.84h14.47c0.62,0,1.24-0.01,1.84-0.03
				c0.61-0.02,1.22-0.01,1.84,0.03c1.36,0.07,2.54,0.22,3.55,0.44c1.01,0.22,1.89,0.51,2.64,0.85c0.75,0.35,1.4,0.75,1.95,1.21
				c0.55,0.46,1.03,0.93,1.43,1.4c0.51,0.62,1.04,1.53,1.57,2.72c0.53,1.19,0.8,2.76,0.8,4.7c0,0.4-0.04,1-0.11,1.79
				c-0.07,0.79-0.28,1.64-0.6,2.56c-0.33,0.92-0.84,1.84-1.54,2.75c-0.7,0.92-1.67,1.69-2.92,2.31c-0.48,0.26-0.99,0.49-1.54,0.69
				c-0.55,0.2-1.36,0.39-2.42,0.58l10.89,16.83H427.79z M427.07,294.53c0-0.25-0.02-0.63-0.05-1.12c-0.04-0.49-0.16-1.01-0.36-1.56
				c-0.2-0.55-0.51-1.11-0.94-1.7c-0.42-0.58-1-1.1-1.73-1.53c-1.03-0.62-2.12-0.96-3.27-1.01c-1.15-0.06-2.32-0.08-3.49-0.08
				h-10.07v13.64h10.34c0.73,0,1.49-0.01,2.26-0.03c0.77-0.02,1.53-0.11,2.28-0.27c0.75-0.17,1.45-0.43,2.09-0.79
				c0.64-0.37,1.22-0.88,1.73-1.54c0.44-0.62,0.75-1.26,0.94-1.92C426.98,295.95,427.07,295.26,427.07,294.53z"/>
			<path class="st4" d="M464.92,322.01v-38.84h26.74v4.57h-21.78v11.99h18.92v4.51h-18.92v13.26h22.44v4.51H464.92z"/>
			<path class="st4" d="M549.86,322.01l-21.29-31.58l0.49,31.58h-4.9v-38.84h4.9l21.02,31.14l-0.22-31.14h4.68v38.84H549.86z"/>
			<path class="st4" d="M621.1,302.64c0,1.07-0.05,2.17-0.14,3.33c-0.09,1.15-0.27,2.26-0.52,3.33c-0.18,0.7-0.48,1.61-0.88,2.72
				c-0.4,1.12-1.03,2.27-1.87,3.46c-0.84,1.19-1.95,2.32-3.3,3.38c-1.36,1.07-3.06,1.87-5.12,2.42c-0.84,0.26-1.71,0.43-2.61,0.52
				c-0.9,0.09-2.19,0.14-3.88,0.14c-0.62,0-1.25,0.01-1.87,0.03c-0.62,0.02-1.25,0.03-1.87,0.03h-9.85v-38.84h15.4
				c0.48,0,1.1,0.03,1.87,0.08c0.77,0.05,1.61,0.19,2.53,0.41c0.92,0.22,1.89,0.58,2.92,1.07c1.03,0.5,2.07,1.18,3.14,2.06
				c0.73,0.63,1.47,1.4,2.2,2.31c0.73,0.92,1.38,2.01,1.95,3.27c0.57,1.27,1.03,2.74,1.37,4.43
				C620.93,298.5,621.1,300.44,621.1,302.64z M615.88,302.59c0-1.8-0.21-3.68-0.63-5.67c-0.42-1.98-1.22-3.7-2.4-5.17
				c-0.29-0.37-0.6-0.7-0.91-0.99c-0.31-0.29-0.65-0.57-1.02-0.82c-0.73-0.51-1.39-0.89-1.96-1.13c-0.57-0.24-1.02-0.39-1.35-0.47
				c-0.44-0.15-0.88-0.26-1.32-0.33c-0.44-0.07-0.93-0.13-1.46-0.17c-0.53-0.04-1.13-0.07-1.79-0.08c-0.66-0.02-1.45-0.03-2.37-0.03
				h-6.12v29.76h9.21c0.37,0,0.89-0.03,1.57-0.08c0.68-0.06,1.42-0.2,2.23-0.44s1.66-0.59,2.54-1.07c0.88-0.48,1.69-1.15,2.43-2.04
				c0.88-0.99,1.66-2.37,2.35-4.15C615.54,307.93,615.88,305.56,615.88,302.59z"/>
			<path class="st4" d="M654.28,322.01v-38.84h26.74v4.57h-21.78v11.99h18.92v4.51h-18.92v13.26h22.44v4.51H654.28z"/>
			<path class="st4" d="M769.86,304.24v17.77h-5.23v-17.77l-13.64-21.07h6.11l10.23,16.45l10.34-16.45h6.16L769.86,304.24z"/>
			<path class="st4" d="M856.01,322.01v-38.84h26.73v4.57h-21.78v11.99h18.92v4.51h-18.92v13.26h22.45v4.51H856.01z"/>
			<path class="st4" d="M940.95,322.01l-21.29-31.58l0.49,31.58h-4.9v-38.84h4.9l21.02,31.14l-0.22-31.14h4.67v38.84H940.95z"/>
			<path class="st4" d="M1009.99,310.84c0,0.4-0.03,0.9-0.08,1.49c-0.05,0.59-0.19,1.24-0.41,1.95c-0.22,0.72-0.54,1.47-0.96,2.26
				c-0.42,0.79-1.02,1.55-1.79,2.28c-0.55,0.52-1.18,1.03-1.9,1.54c-0.72,0.52-1.57,0.96-2.56,1.35c-0.99,0.38-2.13,0.7-3.41,0.94
				c-1.29,0.24-2.75,0.36-4.4,0.36c-0.33,0-0.87-0.02-1.62-0.05c-0.75-0.04-1.62-0.14-2.61-0.3s-2.05-0.43-3.16-0.8
				c-1.12-0.37-2.19-0.88-3.22-1.54c-1.21-0.77-2.26-1.74-3.14-2.91c-0.59-0.77-1.04-1.55-1.37-2.34s-0.6-1.54-0.8-2.26
				c-0.2-0.72-0.33-1.36-0.39-1.92c-0.06-0.57-0.1-1-0.14-1.29l5.56-0.72c0,0.3,0.03,0.7,0.08,1.21c0.05,0.51,0.17,1.09,0.33,1.73
				c0.17,0.64,0.42,1.31,0.77,2.01c0.35,0.7,0.83,1.37,1.46,2.03c0.7,0.73,1.72,1.43,3.08,2.09c1.36,0.66,3.17,0.99,5.45,0.99
				c0.29,0,0.77-0.02,1.43-0.06c0.66-0.04,1.38-0.16,2.15-0.38c0.4-0.11,0.95-0.3,1.65-0.58c0.7-0.27,1.38-0.69,2.04-1.24
				c0.66-0.55,1.23-1.27,1.71-2.17c0.48-0.9,0.72-2.01,0.72-3.33c0-1.29-0.22-2.25-0.66-2.89c-0.44-0.64-0.88-1.14-1.32-1.51
				c-0.77-0.62-1.63-1.07-2.58-1.35c-0.95-0.27-1.89-0.5-2.81-0.69l-3.36-0.71c-1.39-0.29-2.84-0.63-4.35-1.02
				c-1.5-0.38-2.9-0.94-4.18-1.68c-1.17-0.62-2.11-1.3-2.81-2.03c-0.7-0.73-1.23-1.48-1.59-2.23c-0.37-0.75-0.61-1.48-0.72-2.17
				c-0.11-0.7-0.17-1.34-0.17-1.92c0-1.54,0.32-2.95,0.96-4.23c0.64-1.29,1.55-2.4,2.72-3.36c0.99-0.81,2.02-1.43,3.08-1.87
				c1.06-0.44,2.07-0.76,3.03-0.96c0.95-0.2,1.81-0.31,2.56-0.33c0.75-0.02,1.33-0.03,1.74-0.03c1.87,0,3.68,0.19,5.44,0.58
				c1.76,0.38,3.41,1.17,4.95,2.34c0.92,0.7,1.61,1.35,2.09,1.95c0.47,0.6,0.82,1.11,1.04,1.51c0.52,0.88,0.9,1.78,1.15,2.69
				c0.26,0.92,0.48,1.87,0.66,2.86l-5.23,0.33c-0.07-0.84-0.2-1.61-0.38-2.31c-0.18-0.7-0.49-1.39-0.94-2.09
				c-0.44-0.7-1.04-1.33-1.79-1.9c-0.75-0.57-1.7-1.04-2.83-1.4c-1.14-0.37-2.49-0.55-4.07-0.55c-0.62,0-1.29,0.04-1.98,0.11
				c-0.7,0.07-1.39,0.21-2.06,0.41c-0.68,0.2-1.32,0.47-1.92,0.8c-0.61,0.33-1.13,0.75-1.57,1.27c-0.88,0.99-1.32,2.16-1.32,3.52
				c0,0.29,0.06,0.7,0.17,1.24c0.11,0.53,0.37,1.07,0.77,1.62c0.37,0.51,0.83,0.94,1.37,1.29c0.55,0.35,1.13,0.64,1.74,0.88
				c0.6,0.24,1.23,0.43,1.87,0.58c0.64,0.15,1.24,0.3,1.79,0.44l4.29,1.04c0.51,0.11,1.02,0.23,1.51,0.36
				c0.49,0.13,1,0.27,1.51,0.41c0.29,0.08,0.78,0.2,1.46,0.39c0.68,0.18,1.43,0.48,2.26,0.88c0.82,0.4,1.65,0.93,2.48,1.57
				c0.82,0.64,1.53,1.46,2.12,2.45c0.29,0.48,0.6,1.15,0.94,2.01S1009.99,309.45,1009.99,310.84z"/>
			<path class="st4" d="M1043.11,322.01v-38.84h26.73v4.57h-21.78v11.99h18.92v4.51h-18.92v13.26h22.45v4.51H1043.11z"/>
			<path class="st4" d="M1128.05,322.01l-21.29-31.58l0.5,31.58h-4.9v-38.84h4.9l21.01,31.14l-0.22-31.14h4.68v38.84H1128.05z
				 M1125.57,273.49c-0.04,0.18-0.09,0.48-0.17,0.88c-0.07,0.4-0.2,0.86-0.39,1.37c-0.07,0.18-0.19,0.46-0.36,0.82
				c-0.17,0.37-0.4,0.73-0.72,1.1c-0.31,0.37-0.7,0.69-1.18,0.96c-0.48,0.28-1.06,0.41-1.76,0.41c-0.59,0-1.21-0.11-1.87-0.33
				c-0.66-0.22-1.56-0.55-2.69-0.99c-0.63-0.25-1.11-0.43-1.46-0.52c-0.35-0.09-0.69-0.14-1.02-0.14c-0.08,0-0.16,0-0.25,0
				s-0.19,0.02-0.3,0.05c-0.18,0.07-0.41,0.24-0.69,0.5c-0.28,0.26-0.45,0.64-0.52,1.15h-2.64c0.18-1.32,0.47-2.33,0.85-3.03
				c0.39-0.7,0.83-1.25,1.35-1.65c0.51-0.4,1-0.63,1.46-0.69c0.46-0.05,0.83-0.08,1.13-0.08c0.95,0,1.82,0.18,2.61,0.55
				c0.79,0.37,1.6,0.7,2.45,0.99c0.07,0.04,0.3,0.1,0.69,0.19c0.39,0.09,0.76,0.14,1.13,0.14s0.64-0.07,0.82-0.22
				c0.26-0.15,0.44-0.32,0.55-0.52c0.11-0.2,0.24-0.52,0.39-0.96H1125.57z"/>
			<path class="st4" d="M1192.52,322.01l-4.23-11.88h-14.8l-4.35,11.88h-5.5l14.8-38.84h5.39l14.14,38.84H1192.52z M1181.08,289.55
				l-5.94,16.23h11.61L1181.08,289.55z"/>
		</g>
	</g>
	<g>
		<g>
			<g>
				<path class="st4" d="M682.48,171.41c0,2.86-0.39,7.11-1.15,12.75c-0.77,5.63-3.07,11.89-6.91,18.76
					c-4.42,8.02-9.75,14.42-15.99,19.19c-6.24,4.77-12.53,8.45-18.86,11.03c-6.34,2.58-12.13,4.34-17.38,5.3
					c-5.25,0.95-9.12,1.53-11.6,1.72c-3.25,0.38-6.59,0.72-10.02,1c-3.44,0.28-6.87,0.43-10.31,0.43c-10.12,0-19.14-0.76-27.07-2.29
					c-7.93-1.53-14.94-3.48-21.05-5.87c-6.11-2.38-11.46-5.01-16.04-7.88c-4.58-2.86-8.59-5.63-12.03-8.3
					c-1.34-1.15-2.58-2.24-3.72-3.29c-1.15-1.05-2.29-2.19-3.44-3.44c-1.15-1.24-2.43-2.67-3.87-4.3c-1.43-1.62-3.11-3.58-5.01-5.87
					l38.38-24.06c0.38,0.38,1.43,1.53,3.15,3.44c1.72,1.91,3.62,3.63,5.73,5.15c6.68,5.54,14.46,9.74,23.34,12.6
					c8.88,2.87,17.61,4.3,26.21,4.3c1.15,0,3.24-0.09,6.3-0.29c3.05-0.19,6.2-0.76,9.45-1.72c0.38,0,1.72-0.43,4.01-1.29
					c2.29-0.86,4.73-2.15,7.3-3.87c2.58-1.72,4.91-3.91,7.02-6.59c2.1-2.67,3.15-5.92,3.15-9.74c0-4.58-1.48-8.21-4.44-10.88
					c-2.96-2.67-6.69-4.68-11.17-6.02c-4.49-1.33-9.36-2.33-14.61-3.01c-5.25-0.67-10.17-1.29-14.75-1.86
					c-9.93-1.15-19.48-2.87-28.64-5.16c-7.26-1.91-14.18-4.39-20.77-7.45c-6.59-3.05-12.36-7.63-17.33-13.75
					c-0.96-1.14-2.29-2.96-4.01-5.44c-1.72-2.48-3.25-5.63-4.58-9.45c-0.38-1.53-0.91-3.82-1.58-6.87c-0.67-3.05-1-6.68-1-10.89
					c0-0.95,0.09-2.81,0.29-5.58c0.19-2.77,0.47-5.58,0.86-8.45c2.29-12.79,8.11-23.58,17.47-32.37c2.48-2.29,5.63-4.73,9.45-7.3
					c3.82-2.58,8.31-4.87,13.46-6.87c5.16-2.01,11.03-3.67,17.61-5.01c6.59-1.33,14.08-2,22.48-2c3.05,0,6.97,0.19,11.74,0.57
					c4.77,0.38,10.07,1.24,15.9,2.58c5.82,1.34,12.09,3.34,18.8,6.01c6.71,2.68,13.52,6.3,20.44,10.89
					c1.73,1.14,3.31,2.24,4.75,3.29c1.44,1.05,3.02,2.24,4.75,3.58c1.73,1.34,3.6,2.91,5.62,4.73c2.01,1.82,4.46,3.97,7.34,6.44
					l-37.44,26.64c-2.88-2.67-5.57-5.11-8.06-7.3c-2.5-2.19-5.03-4.2-7.61-6.02c-2.58-1.81-5.35-3.44-8.31-4.87
					c-2.96-1.43-6.35-2.72-10.17-3.87c-1.34-0.38-3.72-0.95-7.16-1.72c-3.44-0.76-7.35-1.15-11.74-1.15c-5.16,0-9.64,0.67-13.46,2
					c-3.82,1.34-6.92,3.06-9.31,5.16c-2.39,2.1-4.2,4.44-5.44,7.02c-1.24,2.58-1.86,5.01-1.86,7.3c0,2.68,0.52,4.92,1.58,6.73
					c1.05,1.82,1.95,3.1,2.72,3.87c1.72,1.91,3.72,3.34,6.01,4.3c2.29,0.96,4.91,1.77,7.88,2.43c2.96,0.67,6.35,1.2,10.17,1.58
					c3.82,0.38,8.11,0.96,12.89,1.72c5.73,0.96,11.41,1.96,17.04,3.01c5.63,1.05,11.22,2.24,16.77,3.58
					c1.73,0.38,4.52,1.05,8.36,2.01c3.84,0.96,7.97,2.58,12.38,4.87c4.42,2.29,8.69,5.4,12.82,9.31c4.12,3.91,7.54,8.93,10.23,15.04
					c0.77,1.91,1.63,4.73,2.59,8.45C682,161.82,682.48,166.25,682.48,171.41z"/>
				<path class="st4" d="M836.57,237l-53.85-91.65l-31.22,32.36V237h-48.12V34.79h48.12v82.49l75.61-82.49h61.01l-71.6,75.04
					L893.57,237H836.57z"/>
				<path class="st4" d="M897.29,237V34.79h50.41V237H897.29z"/>
				<path class="st4" d="M978.62,237V34.79h50.41v159.53h79.05V237H978.62z"/>
				<path class="st4" d="M1125.26,237V34.79h50.41v159.53h79.05V237H1125.26z"/>
				<path class="st4" d="M1439.46,171.41c0,2.86-0.39,7.11-1.15,12.75c-0.77,5.63-3.07,11.89-6.91,18.76
					c-4.42,8.02-9.75,14.42-15.99,19.19c-6.24,4.77-12.53,8.45-18.86,11.03c-6.34,2.58-12.13,4.34-17.38,5.3
					c-5.25,0.95-9.12,1.53-11.6,1.72c-3.25,0.38-6.59,0.72-10.02,1c-3.44,0.28-6.87,0.43-10.31,0.43c-10.12,0-19.15-0.76-27.07-2.29
					c-7.93-1.53-14.94-3.48-21.05-5.87c-6.11-2.38-11.46-5.01-16.04-7.88c-4.58-2.86-8.59-5.63-12.03-8.3
					c-1.34-1.15-2.58-2.24-3.72-3.29c-1.15-1.05-2.29-2.19-3.44-3.44c-1.15-1.24-2.43-2.67-3.87-4.3c-1.43-1.62-3.11-3.58-5.01-5.87
					l38.38-24.06c0.38,0.38,1.43,1.53,3.15,3.44s3.62,3.63,5.73,5.15c6.68,5.54,14.46,9.74,23.34,12.6
					c8.88,2.87,17.61,4.3,26.21,4.3c1.15,0,3.25-0.09,6.3-0.29c3.05-0.19,6.2-0.76,9.45-1.72c0.38,0,1.72-0.43,4.01-1.29
					c2.29-0.86,4.73-2.15,7.3-3.87c2.58-1.72,4.92-3.91,7.02-6.59c2.1-2.67,3.15-5.92,3.15-9.74c0-4.58-1.48-8.21-4.44-10.88
					c-2.96-2.67-6.69-4.68-11.17-6.02c-4.49-1.33-9.36-2.33-14.61-3.01c-5.25-0.67-10.17-1.29-14.75-1.86
					c-9.93-1.15-19.48-2.87-28.64-5.16c-7.26-1.91-14.18-4.39-20.77-7.45c-6.59-3.05-12.36-7.63-17.33-13.75
					c-0.96-1.14-2.29-2.96-4.01-5.44c-1.72-2.48-3.25-5.63-4.58-9.45c-0.39-1.53-0.91-3.82-1.58-6.87c-0.67-3.05-1-6.68-1-10.89
					c0-0.95,0.09-2.81,0.29-5.58c0.19-2.77,0.47-5.58,0.86-8.45c2.29-12.79,8.11-23.58,17.47-32.37c2.48-2.29,5.63-4.73,9.45-7.3
					c3.82-2.58,8.31-4.87,13.46-6.87c5.16-2.01,11.03-3.67,17.61-5.01c6.59-1.33,14.08-2,22.48-2c3.05,0,6.97,0.19,11.74,0.57
					c4.77,0.38,10.07,1.24,15.9,2.58c5.82,1.34,12.09,3.34,18.8,6.01c6.71,2.68,13.52,6.3,20.44,10.89
					c1.73,1.14,3.31,2.24,4.75,3.29c1.44,1.05,3.02,2.24,4.75,3.58c1.73,1.34,3.6,2.91,5.62,4.73c2.01,1.82,4.46,3.97,7.34,6.44
					l-37.44,26.64c-2.88-2.67-5.57-5.11-8.06-7.3c-2.5-2.19-5.03-4.2-7.61-6.02c-2.58-1.81-5.35-3.44-8.31-4.87
					c-2.96-1.43-6.35-2.72-10.17-3.87c-1.34-0.38-3.72-0.95-7.16-1.72c-3.44-0.76-7.35-1.15-11.74-1.15c-5.16,0-9.65,0.67-13.46,2
					c-3.82,1.34-6.92,3.06-9.31,5.16c-2.39,2.1-4.2,4.44-5.44,7.02c-1.24,2.58-1.86,5.01-1.86,7.3c0,2.68,0.52,4.92,1.58,6.73
					c1.05,1.82,1.95,3.1,2.72,3.87c1.72,1.91,3.72,3.34,6.01,4.3c2.29,0.96,4.92,1.77,7.88,2.43c2.96,0.67,6.35,1.2,10.17,1.58
					c3.82,0.38,8.11,0.96,12.89,1.72c5.73,0.96,11.41,1.96,17.04,3.01c5.63,1.05,11.22,2.24,16.77,3.58
					c1.73,0.38,4.52,1.05,8.36,2.01c3.84,0.96,7.97,2.58,12.38,4.87c4.42,2.29,8.69,5.4,12.82,9.31c4.12,3.91,7.53,8.93,10.22,15.04
					c0.77,1.91,1.63,4.73,2.59,8.45C1438.97,161.82,1439.46,166.25,1439.46,171.41z"/>
			</g>
		</g>
		<path class="st13" d="M126.93,163.11h45.16c-0.19,0.95-0.57,3.14-1.14,6.57c-0.57,3.43-1.62,6.76-3.14,10
			c-1.53,3.05-3.33,5.67-5.43,7.86c-2.1,2.19-4.24,4-6.43,5.43c-2.19,1.43-4.24,2.57-6.15,3.43c-1.91,0.86-3.33,1.48-4.29,1.86
			c-3.81,1.34-7.24,2.1-10.29,2.29c-3.05,0.19-5.43,0.28-7.14,0.28c-5.72,0-10.72-0.66-15.01-2c-4.29-1.33-7.39-2.47-9.29-3.43
			c-1.33-0.76-3.43-2-6.29-3.72c-2.86-1.71-5.62-4.19-8.29-7.43c-3.43-4.19-6.1-8.95-8-14.29c-1.91-5.33-3.29-10.43-4.15-15.29
			c-0.86-4.86-1.39-9.15-1.57-12.86c-0.19-3.71-0.28-6.14-0.28-7.29c0-8,0.76-15.15,2.29-21.44c1.52-6.29,3.48-11.81,5.86-16.58
			c2.38-4.76,5.05-8.76,8-12c2.95-3.24,5.95-5.81,9-7.72c2.67-1.72,5.43-3.05,8.29-4c2.86-0.95,5.57-1.67,8.14-2.14
			c2.57-0.47,4.86-0.76,6.86-0.86c2-0.09,3.47-0.14,4.43-0.14c1.33,0,3.29,0.1,5.86,0.28c2.57,0.19,5.38,0.67,8.43,1.43
			c3.05,0.76,6.29,2,9.72,3.72c3.43,1.72,6.76,4,10,6.86c1.52,1.34,3.04,2.86,4.57,4.57c1.52,1.72,2.86,3.39,4,5
			c1.14,1.62,2.1,3,2.86,4.15c0.76,1.14,1.24,1.91,1.43,2.29l38.3-23.15c-2.86-3.81-5.57-7.19-8.15-10.15
			c-2.57-2.95-5.67-6.05-9.29-9.29c-2.67-2.29-6.1-5-10.29-8.14c-4.19-3.14-9.24-6.15-15.15-9c-5.91-2.86-12.72-5.24-20.44-7.15
			c-7.72-1.9-16.25-2.86-25.58-2.86c-12.39,0-22.72,1.53-31.01,4.57c-8.29,3.05-14.53,5.82-18.72,8.29
			c-7.82,4.39-14.48,9.43-20.01,15.15c-5.53,5.72-10.1,11.67-13.72,17.86c-3.62,6.19-6.53,12.43-8.72,18.72
			c-2.19,6.29-3.81,12.2-4.86,17.72c-1.05,5.53-1.71,10.53-2,15.01c-0.28,4.48-0.43,7.96-0.43,10.43c0,9.72,1,19.39,3,29.01
			c2,9.62,5.1,18.72,9.29,27.3c4.19,8.58,9.58,16.39,16.15,23.44c6.57,7.05,14.43,12.77,23.58,17.15c8.58,4,16.29,6.43,23.15,7.29
			c6.86,0.86,12.1,1.29,15.72,1.29c1.9,0,4.57-0.1,8-0.29c3.43-0.19,7.24-0.71,11.43-1.57c4.19-0.86,8.67-2.14,13.43-3.86
			c4.76-1.71,9.53-4.19,14.29-7.43c2.86-1.9,6.95-5.24,12.29-10v18.58h39.44V124.8h-87.75V163.11z"/>
		<polygon class="st13" points="281.27,149.1 373.6,149.1 373.6,110.8 281.27,110.8 281.27,73.93 380.17,73.93 380.17,35.05 
			230.97,35.05 230.97,236.85 389.32,236.85 389.32,197.12 281.27,197.12 		"/>
		<polygon class="st13" points="448.48,35.05 399.03,35.05 399.03,236.85 447.62,236.85 445.91,111.94 487.8,184.4 522.37,162.78 		
			"/>
	</g>
</g>
</svg>
