<?xml version="1.0" encoding="utf-8"?>
<!-- Generator: Adobe Illustrator 28.1.0, SVG Export Plug-In . SVG Version: 6.00 Build 0)  -->
<svg version="1.1" id="Layer_1" xmlns="http://www.w3.org/2000/svg" xmlns:xlink="http://www.w3.org/1999/xlink" x="0px" y="0px"
	 viewBox="0 0 588.73 455.95" style="enable-background:new 0 0 588.73 455.95;" xml:space="preserve">
<style type="text/css">
	.st0{fill:#346783;}
	.st1{fill:#3D857B;}
	.st2{fill:#133851;}
	.st3{fill:#FFFFFF;}
	.st4{fill:#FB8F00;}
	.st5{fill:#346786;}
	.st6{fill:#808285;}
	.st7{fill:#6D6E71;}
	.st8{fill:#003A58;}
	.st9{fill:#231F20;}
	.st10{fill:#8F9194;}
	.st11{fill:#FE9200;}
	.st12{fill:#7C7C7C;}
	.st13{fill:#01678A;}
	.st14{fill:#808082;}
	.st15{fill:#CDCFD0;}
	.st16{fill:#E3E4E5;}
</style>
<g>
	<g>
		<g>
			<path class="st4" d="M217.03,194.55v-15.52c-4.46,3.98-7.88,6.77-10.26,8.36c-3.98,2.71-7.96,4.77-11.94,6.21
				c-3.98,1.43-7.72,2.51-11.22,3.22c-3.5,0.72-6.68,1.15-9.55,1.31c-2.86,0.16-5.1,0.24-6.68,0.24c-3.02,0-7.4-0.36-13.13-1.07
				c-5.73-0.72-12.17-2.75-19.34-6.09c-7.64-3.66-14.2-8.43-19.69-14.32c-5.49-5.89-9.99-12.41-13.49-19.58
				c-3.5-7.16-6.09-14.76-7.76-22.8c-1.67-8.04-2.51-16.11-2.51-24.23c0-2.07,0.12-4.97,0.36-8.71c0.24-3.74,0.8-7.92,1.67-12.53
				c0.87-4.61,2.23-9.55,4.06-14.8c1.83-5.25,4.26-10.46,7.28-15.64c3.02-5.17,6.84-10.15,11.46-14.92
				c4.61-4.77,10.18-8.99,16.71-12.65c3.5-2.07,8.71-4.38,15.64-6.92c6.92-2.54,15.55-3.82,25.9-3.82c7.79,0,14.92,0.8,21.37,2.39
				c6.45,1.59,12.13,3.58,17.07,5.97c4.93,2.39,9.15,4.89,12.65,7.52c3.5,2.63,6.36,4.89,8.59,6.8c3.02,2.71,5.61,5.29,7.76,7.76
				c2.15,2.47,4.42,5.29,6.8,8.47l-31.99,19.34c-0.16-0.32-0.56-0.95-1.19-1.91c-0.64-0.95-1.43-2.11-2.39-3.46
				c-0.95-1.35-2.07-2.75-3.34-4.18c-1.28-1.43-2.55-2.7-3.82-3.82c-2.71-2.39-5.49-4.3-8.36-5.73c-2.86-1.43-5.57-2.47-8.12-3.1
				c-2.55-0.63-4.89-1.03-7.04-1.19c-2.15-0.16-3.78-0.24-4.89-0.24c-0.8,0-2.03,0.04-3.7,0.12c-1.67,0.08-3.58,0.32-5.73,0.72
				c-2.15,0.4-4.42,1-6.8,1.79c-2.39,0.8-4.7,1.91-6.92,3.34c-2.55,1.59-5.05,3.74-7.52,6.45c-2.47,2.71-4.7,6.05-6.68,10.03
				c-1.99,3.98-3.62,8.59-4.89,13.85c-1.28,5.25-1.91,11.22-1.91,17.9c0,0.95,0.08,2.98,0.24,6.09c0.16,3.1,0.6,6.68,1.31,10.74
				c0.72,4.06,1.87,8.32,3.46,12.77c1.59,4.46,3.82,8.44,6.68,11.94c2.23,2.71,4.54,4.77,6.92,6.21c2.39,1.43,4.14,2.47,5.25,3.1
				c1.59,0.8,4.18,1.75,7.76,2.86c3.58,1.12,7.76,1.67,12.53,1.67c1.43,0,3.42-0.08,5.97-0.24c2.54-0.16,5.41-0.8,8.59-1.91
				c0.8-0.32,1.99-0.84,3.58-1.55c1.59-0.72,3.3-1.67,5.13-2.86c1.83-1.19,3.62-2.7,5.37-4.54c1.75-1.83,3.26-4.02,4.54-6.57
				c1.27-2.7,2.15-5.49,2.63-8.36c0.48-2.86,0.79-4.69,0.95-5.49h-37.72v-31.99h73.29v93.58H217.03z"/>
			<path class="st4" d="M263.58,194.55V26.01H388.2v32.47h-82.6v30.8h77.11v31.99H305.6v40.11h90.24v33.18H263.58z"/>
			<path class="st4" d="M504.22,194.55L443.1,90.22l1.43,104.32h-40.58V26.01h41.3l61.59,105.75l-1.67-105.75h40.34v168.54H504.22z"
				/>
		</g>
	</g>
	<g>
		<g>
			<path class="st3" d="M41.09,388.22v-41.49h39.25v41.49H41.09z"/>
			<path class="st3" d="M101.45,388.22v-175.4h43.73v138.38h68.57v37.02H101.45z"/>
			<path class="st3" d="M340.2,388.22l-8.7-28.07h-64.59l-8.7,28.07h-46.71l65.09-175.4h45.71l64.59,175.4H340.2z M298.71,254.57
				L277.1,328.6h44.47L298.71,254.57z"/>
			<path class="st3" d="M547.64,339.28c0,1.99-0.21,4.51-0.62,7.58c-0.42,3.07-1.37,6.33-2.86,9.81c-1.49,3.48-3.6,7.04-6.34,10.68
				c-2.73,3.64-6.42,6.96-11.05,9.94c-7.29,4.81-15.03,7.83-23.23,9.07c-8.2,1.24-16.52,1.86-24.97,1.86h-81.49v-175.4h72.05
				c2.32,0,4.64,0,6.96,0c2.32,0,4.64,0.08,6.96,0.25c4.47,0.17,9.02,0.5,13.66,0.99c4.64,0.5,9.11,1.41,13.42,2.73
				c4.3,1.33,8.36,3.19,12.17,5.59c3.81,2.4,7.2,5.59,10.19,9.57c1.82,2.32,3.68,5.55,5.59,9.69c1.9,4.14,2.86,9.53,2.86,16.15
				c0,5.8-0.83,10.77-2.48,14.91c-1.66,4.14-3.69,7.62-6.09,10.43c-2.4,2.82-4.89,5.09-7.45,6.83c-2.57,1.74-4.85,3.02-6.83,3.85
				c-2.15,0.83-4.14,1.53-5.96,2.11c-1.83,0.58-4.72,1.29-8.7,2.11c1.32,0.17,2.52,0.33,3.6,0.5c1.08,0.17,2.19,0.42,3.35,0.75
				c5.13,0.99,9.57,2.28,13.29,3.85c3.73,1.58,6.87,3.32,9.44,5.22c2.57,1.91,4.72,3.98,6.46,6.21c1.74,2.24,3.11,4.43,4.1,6.58
				c0.83,1.49,1.7,3.81,2.61,6.96C547.18,331.25,547.64,334.98,547.64,339.28z M497.95,263.01c0-0.99-0.08-2.19-0.25-3.6
				c-0.17-1.4-0.62-2.9-1.37-4.47c-0.75-1.57-1.91-3.11-3.48-4.6c-1.58-1.49-3.69-2.65-6.33-3.48c-1.16-0.33-2.48-0.62-3.98-0.87
				c-1.49-0.25-3.48-0.37-5.96-0.37h-37.76v36.52h33.04c0.16,0,1.41-0.04,3.73-0.12c2.32-0.08,4.39-0.29,6.21-0.62
				c4.97-0.83,8.45-2.24,10.43-4.22c1.99-1.99,3.39-3.98,4.22-5.96c0.33-0.66,0.66-1.7,0.99-3.11
				C497.79,266.7,497.95,265,497.95,263.01z M503.17,335.31c0-6.46-1.41-11.14-4.22-14.04c-2.82-2.9-5.46-4.76-7.95-5.59
				c-1.66-0.66-3.48-1.12-5.47-1.37c-1.99-0.25-4.89-0.37-8.7-0.37h-38.01v42.48h30.56c7.95,0,14.08-0.54,18.38-1.61
				c4.3-1.08,7.86-3.11,10.68-6.09c0.99-1.16,2.03-2.77,3.11-4.84C502.63,341.81,503.17,338.95,503.17,335.31z"/>
		</g>
	</g>
	<g>
		<path class="st3" d="M101.46,435.16v-20.03h3.78v16.65h7.95v3.38H101.46z"/>
		<path class="st3" d="M133.68,435.16l-1.16-3.92h-7.53l-1.16,3.92h-4.03l6.79-20.06h4.26l6.85,20.06H133.68z M128.76,418.72
			l-2.78,9.23h5.54L128.76,418.72z"/>
		<path class="st3" d="M161.91,429.48c0,1.02-0.21,1.95-0.64,2.77c-0.43,0.82-1.09,1.49-2,2c-0.89,0.49-1.79,0.77-2.68,0.82
			c-0.9,0.06-1.83,0.08-2.8,0.08h-7.87v-20.06h7.19c0.49,0,0.99,0.01,1.51,0.02c0.51,0.01,1.01,0.03,1.51,0.07
			c0.15,0.02,0.36,0.05,0.64,0.08c0.27,0.04,0.57,0.11,0.89,0.23c0.32,0.11,0.66,0.27,1.02,0.48c0.36,0.21,0.7,0.48,1.02,0.82
			c0.11,0.11,0.24,0.27,0.38,0.45c0.14,0.19,0.28,0.42,0.41,0.7c0.13,0.27,0.25,0.58,0.34,0.92c0.1,0.34,0.14,0.72,0.14,1.14
			c0,0.15-0.01,0.37-0.04,0.67c-0.03,0.3-0.1,0.62-0.23,0.97c-0.12,0.35-0.31,0.7-0.55,1.05c-0.25,0.35-0.58,0.66-0.99,0.92
			c-0.25,0.15-0.49,0.27-0.73,0.34c-0.24,0.08-0.5,0.14-0.78,0.2c0.13,0.04,0.34,0.09,0.63,0.16c0.28,0.07,0.59,0.19,0.91,0.38
			c0.25,0.13,0.53,0.32,0.85,0.57c0.32,0.25,0.62,0.56,0.89,0.94c0.27,0.38,0.51,0.84,0.7,1.38
			C161.82,428.13,161.91,428.76,161.91,429.48z M157.11,420.65c0-0.11-0.03-0.31-0.08-0.58c-0.06-0.27-0.19-0.54-0.4-0.81
			c-0.25-0.3-0.53-0.53-0.85-0.68c-0.32-0.15-0.67-0.26-1.04-0.31c-0.37-0.06-0.74-0.09-1.11-0.09s-0.72,0-1.07,0h-2.92v5h1.31
			c0.49,0,0.99,0,1.49,0c0.5,0,1.01-0.02,1.52-0.06c0.47-0.04,0.93-0.1,1.36-0.2c0.44-0.09,0.82-0.33,1.17-0.71
			c0.11-0.11,0.25-0.29,0.4-0.54C157.04,421.43,157.11,421.08,157.11,420.65z M158.08,429.14c0-0.13-0.01-0.31-0.04-0.54
			c-0.03-0.23-0.1-0.47-0.21-0.73s-0.28-0.51-0.5-0.75c-0.22-0.25-0.51-0.46-0.87-0.65c-0.51-0.25-1.13-0.39-1.86-0.43
			c-0.73-0.04-1.68-0.06-2.86-0.06h-2.1v5.94h4.2c0.3,0,0.62,0,0.95,0c0.33,0,0.65-0.03,0.97-0.08c0.31-0.06,0.61-0.16,0.91-0.3
			c0.29-0.14,0.55-0.36,0.78-0.64c0.13-0.15,0.27-0.36,0.41-0.63C158.01,430.01,158.08,429.63,158.08,429.14z"/>
		<path class="st3" d="M189.47,425.14c0,0.32-0.02,0.77-0.06,1.33s-0.15,1.2-0.34,1.9c-0.19,0.7-0.47,1.43-0.84,2.2
			c-0.37,0.77-0.89,1.51-1.55,2.23c-0.11,0.11-0.27,0.27-0.47,0.47c-0.2,0.2-0.44,0.41-0.72,0.63c-0.28,0.22-0.61,0.43-0.98,0.64
			c-0.37,0.21-0.78,0.4-1.23,0.57c-0.32,0.11-0.77,0.24-1.35,0.37c-0.58,0.13-1.29,0.2-2.14,0.2c-1.42,0-2.68-0.25-3.79-0.74
			c-1.11-0.49-2.14-1.28-3.08-2.36c-0.95-1.08-1.63-2.23-2.05-3.47c-0.42-1.23-0.63-2.55-0.63-3.95c0-0.32,0.03-0.84,0.08-1.55
			c0.06-0.71,0.23-1.49,0.51-2.34c0.32-1,0.77-1.92,1.35-2.74c0.58-0.82,1.26-1.52,2.05-2.1c0.79-0.58,1.65-1.03,2.6-1.35
			c0.95-0.32,1.96-0.48,3.04-0.48c0.97,0,1.84,0.11,2.61,0.34c0.78,0.23,1.46,0.51,2.05,0.84c0.59,0.33,1.08,0.68,1.49,1.05
			c0.41,0.37,0.72,0.69,0.95,0.95c0.27,0.3,0.54,0.68,0.84,1.12c0.29,0.45,0.56,0.97,0.81,1.58c0.25,0.61,0.45,1.29,0.61,2.06
			S189.47,424.17,189.47,425.14z M185.69,425.53c0.02-0.83-0.06-1.67-0.24-2.51c-0.18-0.84-0.5-1.62-0.95-2.34
			c-0.53-0.85-1.18-1.51-1.96-1.96c-0.78-0.45-1.68-0.68-2.7-0.68c-0.63,0-1.16,0.08-1.59,0.23c-0.44,0.15-0.76,0.27-0.97,0.37
			c-0.36,0.19-0.72,0.45-1.09,0.8c-0.37,0.34-0.71,0.77-1.02,1.28c-0.31,0.51-0.57,1.13-0.77,1.85c-0.2,0.72-0.3,1.54-0.3,2.47
			c0,0.19,0.02,0.54,0.04,1.05c0.03,0.51,0.13,1.08,0.31,1.7c0.18,0.62,0.46,1.26,0.85,1.9s0.93,1.19,1.63,1.65
			c0.61,0.4,1.18,0.64,1.73,0.72c0.55,0.08,0.96,0.13,1.22,0.13c0.21,0,0.52-0.02,0.94-0.07c0.42-0.05,0.87-0.19,1.36-0.41
			c0.36-0.17,0.74-0.41,1.15-0.72c0.41-0.31,0.78-0.71,1.12-1.21c0.34-0.49,0.62-1.08,0.85-1.78
			C185.55,427.3,185.67,426.48,185.69,425.53z"/>
		<path class="st3" d="M209.81,435.16l-3.95-7.44h-3.38v7.44h-3.72v-20.06h8.21c0.23,0,0.55,0.02,0.98,0.06
			c0.43,0.04,0.89,0.13,1.39,0.28s1.02,0.39,1.55,0.72c0.53,0.33,1.02,0.79,1.48,1.38c0.28,0.38,0.51,0.77,0.68,1.16
			c0.17,0.4,0.29,0.77,0.37,1.12c0.08,0.35,0.12,0.67,0.14,0.95c0.02,0.28,0.03,0.51,0.03,0.68c0,0.15-0.02,0.45-0.06,0.88
			s-0.14,0.89-0.31,1.36c-0.08,0.21-0.2,0.46-0.37,0.77c-0.17,0.3-0.4,0.61-0.68,0.92c-0.28,0.31-0.64,0.61-1.05,0.89
			c-0.42,0.28-0.91,0.51-1.48,0.68l4.46,8.18H209.81z M209.78,421.44c0-0.13-0.01-0.3-0.03-0.5c-0.02-0.2-0.07-0.41-0.16-0.64
			c-0.08-0.23-0.21-0.46-0.37-0.7c-0.16-0.24-0.39-0.46-0.7-0.67c-0.32-0.21-0.7-0.36-1.15-0.45s-1.06-0.14-1.86-0.14h-3.04v6.25
			h1.34c1.1,0,2-0.02,2.71-0.06c0.71-0.04,1.29-0.18,1.75-0.43c0.13-0.08,0.29-0.18,0.47-0.31c0.18-0.13,0.35-0.31,0.5-0.52
			c0.15-0.22,0.28-0.48,0.38-0.78C209.72,422.19,209.78,421.84,209.78,421.44z"/>
		<path class="st3" d="M234.55,435.16l-1.16-3.92h-7.53l-1.16,3.92h-4.03l6.79-20.06h4.26l6.85,20.06H234.55z M229.63,418.72
			l-2.78,9.23h5.54L229.63,418.72z"/>
		<path class="st3" d="M252.59,418.49v16.67h-3.78v-16.67h-5.45v-3.38h14.77v3.38H252.59z"/>
		<path class="st3" d="M283.78,425.14c0,0.32-0.02,0.77-0.06,1.33c-0.04,0.57-0.15,1.2-0.34,1.9c-0.19,0.7-0.47,1.43-0.84,2.2
			c-0.37,0.77-0.89,1.51-1.55,2.23c-0.11,0.11-0.27,0.27-0.47,0.47c-0.2,0.2-0.44,0.41-0.72,0.63c-0.28,0.22-0.61,0.43-0.98,0.64
			c-0.37,0.21-0.78,0.4-1.23,0.57c-0.32,0.11-0.77,0.24-1.35,0.37c-0.58,0.13-1.29,0.2-2.14,0.2c-1.42,0-2.68-0.25-3.79-0.74
			c-1.11-0.49-2.14-1.28-3.08-2.36c-0.95-1.08-1.63-2.23-2.05-3.47c-0.42-1.23-0.63-2.55-0.63-3.95c0-0.32,0.03-0.84,0.08-1.55
			c0.06-0.71,0.23-1.49,0.51-2.34c0.32-1,0.77-1.92,1.35-2.74c0.58-0.82,1.26-1.52,2.05-2.1c0.79-0.58,1.65-1.03,2.6-1.35
			c0.95-0.32,1.96-0.48,3.04-0.48c0.97,0,1.84,0.11,2.61,0.34c0.78,0.23,1.46,0.51,2.05,0.84c0.59,0.33,1.08,0.68,1.49,1.05
			c0.41,0.37,0.72,0.69,0.95,0.95c0.27,0.3,0.54,0.68,0.84,1.12c0.29,0.45,0.56,0.97,0.81,1.58c0.25,0.61,0.45,1.29,0.61,2.06
			C283.7,423.3,283.78,424.17,283.78,425.14z M280,425.53c0.02-0.83-0.06-1.67-0.24-2.51c-0.18-0.84-0.5-1.62-0.95-2.34
			c-0.53-0.85-1.18-1.51-1.96-1.96c-0.78-0.45-1.68-0.68-2.7-0.68c-0.63,0-1.16,0.08-1.59,0.23c-0.44,0.15-0.76,0.27-0.97,0.37
			c-0.36,0.19-0.72,0.45-1.09,0.8c-0.37,0.34-0.71,0.77-1.02,1.28c-0.31,0.51-0.57,1.13-0.77,1.85c-0.2,0.72-0.3,1.54-0.3,2.47
			c0,0.19,0.02,0.54,0.04,1.05c0.03,0.51,0.13,1.08,0.31,1.7c0.18,0.62,0.46,1.26,0.85,1.9s0.93,1.19,1.63,1.65
			c0.61,0.4,1.18,0.64,1.73,0.72c0.55,0.08,0.96,0.13,1.22,0.13c0.21,0,0.52-0.02,0.94-0.07c0.42-0.05,0.87-0.19,1.36-0.41
			c0.36-0.17,0.74-0.41,1.15-0.72c0.41-0.31,0.78-0.71,1.12-1.21c0.34-0.49,0.62-1.08,0.85-1.78
			C279.86,427.3,279.98,426.48,280,425.53z"/>
		<path class="st3" d="M304.11,435.16l-3.95-7.44h-3.38v7.44h-3.72v-20.06h8.21c0.23,0,0.55,0.02,0.98,0.06
			c0.43,0.04,0.89,0.13,1.39,0.28c0.5,0.15,1.02,0.39,1.55,0.72c0.53,0.33,1.02,0.79,1.48,1.38c0.28,0.38,0.51,0.77,0.68,1.16
			c0.17,0.4,0.29,0.77,0.37,1.12c0.08,0.35,0.12,0.67,0.14,0.95s0.03,0.51,0.03,0.68c0,0.15-0.02,0.45-0.06,0.88
			c-0.04,0.44-0.14,0.89-0.31,1.36c-0.08,0.21-0.2,0.46-0.37,0.77c-0.17,0.3-0.4,0.61-0.68,0.92c-0.28,0.31-0.64,0.61-1.05,0.89
			c-0.42,0.28-0.91,0.51-1.48,0.68l4.46,8.18H304.11z M304.09,421.44c0-0.13-0.01-0.3-0.03-0.5c-0.02-0.2-0.07-0.41-0.16-0.64
			c-0.08-0.23-0.21-0.46-0.37-0.7c-0.16-0.24-0.39-0.46-0.7-0.67c-0.32-0.21-0.7-0.36-1.15-0.45s-1.06-0.14-1.86-0.14h-3.04v6.25
			h1.34c1.1,0,2-0.02,2.71-0.06c0.71-0.04,1.29-0.18,1.75-0.43c0.13-0.08,0.29-0.18,0.47-0.31c0.18-0.13,0.35-0.31,0.5-0.52
			c0.15-0.22,0.28-0.48,0.38-0.78C304.03,422.19,304.09,421.84,304.09,421.44z"/>
		<path class="st3" d="M317.07,435.16v-20.06h3.69v20.06H317.07z"/>
		<path class="st3" d="M349.37,425.14c0,0.32-0.02,0.77-0.06,1.33c-0.04,0.57-0.15,1.2-0.34,1.9c-0.19,0.7-0.47,1.43-0.84,2.2
			c-0.37,0.77-0.89,1.51-1.55,2.23c-0.11,0.11-0.27,0.27-0.47,0.47c-0.2,0.2-0.44,0.41-0.72,0.63c-0.28,0.22-0.61,0.43-0.98,0.64
			c-0.37,0.21-0.78,0.4-1.23,0.57c-0.32,0.11-0.77,0.24-1.35,0.37c-0.58,0.13-1.29,0.2-2.14,0.2c-1.42,0-2.68-0.25-3.79-0.74
			c-1.11-0.49-2.14-1.28-3.08-2.36c-0.95-1.08-1.63-2.23-2.05-3.47c-0.42-1.23-0.63-2.55-0.63-3.95c0-0.32,0.03-0.84,0.08-1.55
			c0.06-0.71,0.23-1.49,0.51-2.34c0.32-1,0.77-1.92,1.35-2.74c0.58-0.82,1.26-1.52,2.05-2.1c0.79-0.58,1.65-1.03,2.6-1.35
			c0.95-0.32,1.96-0.48,3.04-0.48c0.97,0,1.84,0.11,2.61,0.34c0.78,0.23,1.46,0.51,2.05,0.84c0.59,0.33,1.08,0.68,1.49,1.05
			c0.41,0.37,0.72,0.69,0.95,0.95c0.27,0.3,0.54,0.68,0.84,1.12c0.29,0.45,0.56,0.97,0.81,1.58c0.25,0.61,0.45,1.29,0.61,2.06
			C349.29,423.3,349.37,424.17,349.37,425.14z M345.59,425.53c0.02-0.83-0.06-1.67-0.24-2.51c-0.18-0.84-0.5-1.62-0.95-2.34
			c-0.53-0.85-1.18-1.51-1.96-1.96c-0.78-0.45-1.68-0.68-2.7-0.68c-0.63,0-1.16,0.08-1.59,0.23c-0.44,0.15-0.76,0.27-0.97,0.37
			c-0.36,0.19-0.72,0.45-1.09,0.8c-0.37,0.34-0.71,0.77-1.02,1.28c-0.31,0.51-0.57,1.13-0.77,1.85c-0.2,0.72-0.3,1.54-0.3,2.47
			c0,0.19,0.02,0.54,0.04,1.05c0.03,0.51,0.13,1.08,0.31,1.7c0.18,0.62,0.46,1.26,0.85,1.9s0.93,1.19,1.63,1.65
			c0.61,0.4,1.18,0.64,1.73,0.72c0.55,0.08,0.96,0.13,1.22,0.13c0.21,0,0.52-0.02,0.94-0.07c0.42-0.05,0.87-0.19,1.36-0.41
			c0.36-0.17,0.74-0.41,1.15-0.72c0.41-0.31,0.78-0.71,1.12-1.21c0.34-0.49,0.62-1.08,0.85-1.78
			C345.45,427.3,345.57,426.48,345.59,425.53z"/>
		<path class="st3" d="M389.31,429.57c-0.21,0.51-0.43,0.98-0.65,1.41c-0.23,0.43-0.51,0.86-0.85,1.29
			c-0.23,0.3-0.54,0.65-0.94,1.04c-0.4,0.39-0.89,0.76-1.48,1.11c-0.59,0.35-1.27,0.65-2.06,0.89c-0.79,0.25-1.68,0.37-2.68,0.37
			c-0.34,0-0.88-0.04-1.62-0.13c-0.74-0.09-1.54-0.33-2.41-0.73c-0.57-0.26-1.17-0.64-1.79-1.14c-0.63-0.49-1.2-1.13-1.73-1.92
			c-0.53-0.79-0.97-1.73-1.31-2.83c-0.34-1.1-0.51-2.39-0.51-3.86c0-0.27,0.01-0.63,0.03-1.11c0.02-0.47,0.09-1.01,0.2-1.61
			c0.11-0.6,0.3-1.23,0.55-1.89c0.26-0.66,0.61-1.33,1.07-1.99c0.25-0.34,0.58-0.74,0.99-1.19c0.42-0.45,0.94-0.88,1.56-1.28
			c0.63-0.4,1.36-0.73,2.2-1.01c0.84-0.27,1.81-0.41,2.91-0.41c0.97,0,1.82,0.1,2.56,0.31s1.38,0.47,1.93,0.8
			c0.55,0.32,1.01,0.67,1.38,1.04c0.37,0.37,0.67,0.71,0.89,1.04c0.32,0.49,0.59,0.98,0.81,1.48c0.22,0.49,0.41,1,0.58,1.53
			l-3.72,0.97c-0.02-0.13-0.06-0.35-0.13-0.64c-0.07-0.29-0.2-0.61-0.38-0.95c-0.38-0.72-0.92-1.26-1.62-1.62
			c-0.7-0.36-1.45-0.53-2.24-0.51c-0.57,0-1.05,0.07-1.43,0.2s-0.69,0.25-0.89,0.34c-0.38,0.19-0.75,0.45-1.12,0.8
			c-0.37,0.34-0.71,0.77-1.02,1.29s-0.56,1.14-0.75,1.86c-0.19,0.72-0.28,1.54-0.28,2.47c0,0.15,0.01,0.4,0.03,0.74
			c0.02,0.34,0.07,0.73,0.14,1.18c0.08,0.45,0.19,0.91,0.36,1.41c0.16,0.49,0.38,0.97,0.67,1.42c0.42,0.63,0.9,1.12,1.45,1.48
			c0.61,0.42,1.18,0.67,1.72,0.77c0.54,0.1,0.94,0.14,1.21,0.14c0.8,0,1.49-0.15,2.07-0.45c0.59-0.3,1.13-0.76,1.62-1.36
			c0.21-0.25,0.38-0.49,0.52-0.74c0.14-0.25,0.23-0.41,0.27-0.48c0.06-0.13,0.11-0.27,0.16-0.4c0.05-0.13,0.12-0.33,0.21-0.6
			L389.31,429.57z"/>
		<path class="st3" d="M408.79,435.16l-3.95-7.44h-3.38v7.44h-3.72v-20.06h8.21c0.23,0,0.55,0.02,0.98,0.06
			c0.43,0.04,0.89,0.13,1.39,0.28c0.5,0.15,1.02,0.39,1.55,0.72c0.53,0.33,1.02,0.79,1.48,1.38c0.28,0.38,0.51,0.77,0.68,1.16
			c0.17,0.4,0.29,0.77,0.37,1.12c0.08,0.35,0.12,0.67,0.14,0.95c0.02,0.28,0.03,0.51,0.03,0.68c0,0.15-0.02,0.45-0.06,0.88
			c-0.04,0.44-0.14,0.89-0.31,1.36c-0.08,0.21-0.2,0.46-0.37,0.77c-0.17,0.3-0.4,0.61-0.68,0.92c-0.28,0.31-0.64,0.61-1.05,0.89
			c-0.42,0.28-0.91,0.51-1.48,0.68l4.46,8.18H408.79z M408.76,421.44c0-0.13-0.01-0.3-0.03-0.5c-0.02-0.2-0.07-0.41-0.16-0.64
			c-0.08-0.23-0.21-0.46-0.37-0.7c-0.16-0.24-0.39-0.46-0.7-0.67c-0.32-0.21-0.7-0.36-1.15-0.45s-1.06-0.14-1.86-0.14h-3.04v6.25
			h1.34c1.1,0,2-0.02,2.71-0.06c0.71-0.04,1.29-0.18,1.75-0.43c0.13-0.08,0.29-0.18,0.47-0.31c0.18-0.13,0.35-0.31,0.5-0.52
			c0.15-0.22,0.28-0.48,0.38-0.78C408.71,422.19,408.76,421.84,408.76,421.44z"/>
		<path class="st3" d="M421.69,435.16v-20.06h14.26v3.38h-10.57v4.69h9.69v3.24h-9.69v5.37h11.28v3.38H421.69z"/>
		<path class="st3" d="M456.97,435.16l-1.16-3.92h-7.53l-1.16,3.92h-4.03l6.79-20.06h4.26l6.85,20.06H456.97z M452.06,418.72
			l-2.78,9.23h5.54L452.06,418.72z"/>
		<path class="st3" d="M475.01,418.49v16.67h-3.78v-16.67h-5.45v-3.38h14.77v3.38H475.01z"/>
		<path class="st3" d="M489.07,435.16v-20.06h3.69v20.06H489.07z"/>
		<path class="st3" d="M511.97,435.16h-5.06L501,415.11h3.95l4.49,15.82l4.37-15.82h3.86L511.97,435.16z"/>
		<path class="st3" d="M544.21,425.14c0,0.32-0.02,0.77-0.06,1.33c-0.04,0.57-0.15,1.2-0.34,1.9c-0.19,0.7-0.47,1.43-0.84,2.2
			c-0.37,0.77-0.89,1.51-1.55,2.23c-0.11,0.11-0.27,0.27-0.47,0.47c-0.2,0.2-0.44,0.41-0.72,0.63c-0.28,0.22-0.61,0.43-0.98,0.64
			c-0.37,0.21-0.78,0.4-1.23,0.57c-0.32,0.11-0.77,0.24-1.35,0.37c-0.58,0.13-1.29,0.2-2.14,0.2c-1.42,0-2.68-0.25-3.79-0.74
			c-1.11-0.49-2.14-1.28-3.08-2.36c-0.95-1.08-1.63-2.23-2.05-3.47c-0.42-1.23-0.63-2.55-0.63-3.95c0-0.32,0.03-0.84,0.08-1.55
			c0.06-0.71,0.23-1.49,0.51-2.34c0.32-1,0.77-1.92,1.35-2.74c0.58-0.82,1.26-1.52,2.05-2.1c0.79-0.58,1.65-1.03,2.6-1.35
			c0.95-0.32,1.96-0.48,3.04-0.48c0.97,0,1.84,0.11,2.61,0.34c0.78,0.23,1.46,0.51,2.05,0.84c0.59,0.33,1.08,0.68,1.49,1.05
			c0.41,0.37,0.72,0.69,0.95,0.95c0.27,0.3,0.54,0.68,0.84,1.12c0.29,0.45,0.56,0.97,0.81,1.58c0.25,0.61,0.45,1.29,0.61,2.06
			S544.21,424.17,544.21,425.14z M540.43,425.53c0.02-0.83-0.06-1.67-0.24-2.51c-0.18-0.84-0.5-1.62-0.95-2.34
			c-0.53-0.85-1.18-1.51-1.96-1.96c-0.78-0.45-1.68-0.68-2.7-0.68c-0.63,0-1.16,0.08-1.59,0.23s-0.76,0.27-0.97,0.37
			c-0.36,0.19-0.72,0.45-1.09,0.8c-0.37,0.34-0.71,0.77-1.02,1.28c-0.31,0.51-0.57,1.13-0.77,1.85c-0.2,0.72-0.3,1.54-0.3,2.47
			c0,0.19,0.02,0.54,0.04,1.05c0.03,0.51,0.13,1.08,0.31,1.7c0.18,0.62,0.46,1.26,0.85,1.9c0.39,0.64,0.93,1.19,1.63,1.65
			c0.61,0.4,1.18,0.64,1.73,0.72c0.55,0.08,0.96,0.13,1.22,0.13c0.21,0,0.52-0.02,0.94-0.07c0.42-0.05,0.87-0.19,1.36-0.41
			c0.36-0.17,0.74-0.41,1.15-0.72c0.41-0.31,0.78-0.71,1.12-1.21c0.34-0.49,0.62-1.08,0.85-1.78
			C540.29,427.3,540.41,426.48,540.43,425.53z"/>
	</g>
</g>
</svg>
