<?xml version="1.0" encoding="UTF-8"?>
<svg xmlns="http://www.w3.org/2000/svg" version="1.1" viewBox="0 0 588.7 456">
  <defs>
    <style>
      .cls-1 {
        fill: #6d6e71;
      }

      .cls-2 {
        fill: #fb8f00;
      }
    </style>
  </defs>
  <!-- Generator: Adobe Illustrator 28.6.0, SVG Export Plug-In . SVG Version: 1.2.0 Build 709)  -->
  <g>
    <g id="Layer_1">
      <g>
        <g>
          <path class="cls-2" d="M217,194.6v-15.5c-4.5,4-7.9,6.8-10.3,8.4-4,2.7-8,4.8-11.9,6.2-4,1.4-7.7,2.5-11.2,3.2-3.5.7-6.7,1.1-9.6,1.3-2.9.2-5.1.2-6.7.2-3,0-7.4-.4-13.1-1.1-5.7-.7-12.2-2.8-19.3-6.1-7.6-3.7-14.2-8.4-19.7-14.3-5.5-5.9-10-12.4-13.5-19.6-3.5-7.2-6.1-14.8-7.8-22.8-1.7-8-2.5-16.1-2.5-24.2s.1-5,.4-8.7.8-7.9,1.7-12.5c.9-4.6,2.2-9.6,4.1-14.8,1.8-5.2,4.3-10.5,7.3-15.6,3-5.2,6.8-10.2,11.5-14.9,4.6-4.8,10.2-9,16.7-12.6,3.5-2.1,8.7-4.4,15.6-6.9,6.9-2.5,15.6-3.8,25.9-3.8s14.9.8,21.4,2.4,12.1,3.6,17.1,6c4.9,2.4,9.1,4.9,12.6,7.5,3.5,2.6,6.4,4.9,8.6,6.8,3,2.7,5.6,5.3,7.8,7.8,2.1,2.5,4.4,5.3,6.8,8.5l-32,19.3c-.2-.3-.6-.9-1.2-1.9-.6-.9-1.4-2.1-2.4-3.5-.9-1.3-2.1-2.8-3.3-4.2-1.3-1.4-2.6-2.7-3.8-3.8-2.7-2.4-5.5-4.3-8.4-5.7-2.9-1.4-5.6-2.5-8.1-3.1-2.6-.6-4.9-1-7-1.2s-3.8-.2-4.9-.2-2,0-3.7.1c-1.7,0-3.6.3-5.7.7s-4.4,1-6.8,1.8c-2.4.8-4.7,1.9-6.9,3.3-2.6,1.6-5.1,3.7-7.5,6.5s-4.7,6.1-6.7,10c-2,4-3.6,8.6-4.9,13.8-1.3,5.2-1.9,11.2-1.9,17.9s0,3,.2,6.1c.2,3.1.6,6.7,1.3,10.7.7,4.1,1.9,8.3,3.5,12.8,1.6,4.5,3.8,8.4,6.7,11.9,2.2,2.7,4.5,4.8,6.9,6.2,2.4,1.4,4.1,2.5,5.2,3.1,1.6.8,4.2,1.8,7.8,2.9,3.6,1.1,7.8,1.7,12.5,1.7s3.4,0,6-.2c2.5-.2,5.4-.8,8.6-1.9.8-.3,2-.8,3.6-1.6,1.6-.7,3.3-1.7,5.1-2.9s3.6-2.7,5.4-4.5c1.8-1.8,3.3-4,4.5-6.6,1.3-2.7,2.1-5.5,2.6-8.4.5-2.9.8-4.7.9-5.5h-37.7v-32h73.3v93.6h-32.9Z"/>
          <path class="cls-2" d="M263.6,194.6V26h124.6v32.5h-82.6v30.8h77.1v32h-77.1v40.1h90.2v33.2h-132.3Z"/>
          <path class="cls-2" d="M504.2,194.6l-61.1-104.3,1.4,104.3h-40.6V26h41.3l61.6,105.7-1.7-105.8h40.3v168.5h-41.3Z"/>
        </g>
        <g>
          <path class="cls-1" d="M41.1,388.2v-41.5h39.2v41.5h-39.2Z"/>
          <path class="cls-1" d="M101.4,388.2v-175.4h43.7v138.4h68.6v37h-112.3Z"/>
          <path class="cls-1" d="M340.2,388.2l-8.7-28.1h-64.6l-8.7,28.1h-46.7l65.1-175.4h45.7l64.6,175.4h-46.7ZM298.7,254.6l-21.6,74h44.5l-22.9-74Z"/>
          <path class="cls-1" d="M547.6,339.3c0,2-.2,4.5-.6,7.6-.4,3.1-1.4,6.3-2.9,9.8s-3.6,7-6.3,10.7c-2.7,3.6-6.4,7-11,9.9-7.3,4.8-15,7.8-23.2,9.1-8.2,1.2-16.5,1.9-25,1.9h-81.5v-175.4h79c2.3,0,4.6,0,7,.2,4.5.2,9,.5,13.7,1,4.6.5,9.1,1.4,13.4,2.7,4.3,1.3,8.4,3.2,12.2,5.6s7.2,5.6,10.2,9.6c1.8,2.3,3.7,5.6,5.6,9.7,1.9,4.1,2.9,9.5,2.9,16.1s-.8,10.8-2.5,14.9c-1.7,4.1-3.7,7.6-6.1,10.4-2.4,2.8-4.9,5.1-7.5,6.8-2.6,1.7-4.8,3-6.8,3.9-2.2.8-4.1,1.5-6,2.1-1.8.6-4.7,1.3-8.7,2.1,1.3.2,2.5.3,3.6.5,1.1.2,2.2.4,3.4.8,5.1,1,9.6,2.3,13.3,3.9,3.7,1.6,6.9,3.3,9.4,5.2,2.6,1.9,4.7,4,6.5,6.2,1.7,2.2,3.1,4.4,4.1,6.6.8,1.5,1.7,3.8,2.6,7,.9,3.2,1.4,6.9,1.4,11.2ZM498,263c0-1,0-2.2-.2-3.6-.2-1.4-.6-2.9-1.4-4.5s-1.9-3.1-3.5-4.6c-1.6-1.5-3.7-2.6-6.3-3.5-1.2-.3-2.5-.6-4-.9-1.5-.2-3.5-.4-6-.4h-37.8v36.5h33c.2,0,1.4,0,3.7-.1s4.4-.3,6.2-.6c5-.8,8.5-2.2,10.4-4.2,2-2,3.4-4,4.2-6,.3-.7.7-1.7,1-3.1.4-1.4.5-3.1.5-5.1ZM503.2,335.3c0-6.5-1.4-11.1-4.2-14-2.8-2.9-5.5-4.8-8-5.6-1.7-.7-3.5-1.1-5.5-1.4s-4.9-.4-8.7-.4h-38v42.5h30.6c8,0,14.1-.5,18.4-1.6,4.3-1.1,7.9-3.1,10.7-6.1,1-1.2,2-2.8,3.1-4.8,1.1-2.1,1.6-4.9,1.6-8.6Z"/>
        </g>
      </g>
      <g>
        <path class="cls-1" d="M114.4,417.7c-.2.5-.4,1-.7,1.4-.2.4-.5.9-.9,1.3-.2.3-.5.7-1,1.1s-.9.8-1.5,1.1c-.6.4-1.3.7-2.1.9-.8.2-1.7.4-2.7.4s-.9,0-1.6-.1c-.7,0-1.6-.3-2.4-.7-.6-.3-1.2-.7-1.8-1.2-.6-.5-1.2-1.1-1.8-1.9-.5-.8-1-1.8-1.3-2.9s-.5-2.4-.5-3.9,0-.6,0-1.1c0-.5,0-1,.2-1.6.1-.6.3-1.2.6-1.9.3-.7.6-1.3,1.1-2,.2-.3.6-.7,1-1.2.4-.5,1-.9,1.6-1.3s1.4-.7,2.2-1c.9-.3,1.8-.4,3-.4s1.8.1,2.6.3c.7.2,1.4.5,2,.8.6.3,1,.7,1.4,1.1.4.4.7.7.9,1.1.3.5.6,1,.8,1.5.2.5.4,1,.6,1.6l-3.8,1c0-.1,0-.4-.1-.6s-.2-.6-.4-1c-.4-.7-.9-1.3-1.6-1.6-.7-.4-1.5-.5-2.3-.5-.6,0-1.1,0-1.5.2-.4.1-.7.2-.9.3-.4.2-.8.5-1.1.8s-.7.8-1,1.3-.6,1.2-.8,1.9c-.2.7-.3,1.6-.3,2.5s0,.4,0,.7c0,.3,0,.7.1,1.2,0,.5.2.9.4,1.4.2.5.4,1,.7,1.4.4.6.9,1.1,1.5,1.5.6.4,1.2.7,1.7.8.5,0,1,.1,1.2.1.8,0,1.5-.2,2.1-.5.6-.3,1.1-.8,1.6-1.4.2-.2.4-.5.5-.7s.2-.4.3-.5c0-.1.1-.3.2-.4,0-.1.1-.3.2-.6l3.6,1.5Z"/>
        <path class="cls-1" d="M151.4,423.4l-4-7.5h-3.4v7.5h-3.8v-20.3h8.3c.2,0,.6,0,1,0s.9.1,1.4.3,1,.4,1.6.7c.5.3,1,.8,1.5,1.4.3.4.5.8.7,1.2s.3.8.4,1.1c0,.4.1.7.1,1,0,.3,0,.5,0,.7s0,.5,0,.9c0,.4-.1.9-.3,1.4,0,.2-.2.5-.4.8-.2.3-.4.6-.7.9-.3.3-.6.6-1.1.9-.4.3-.9.5-1.5.7l4.5,8.3h-4.4ZM151.4,409.5c0-.1,0-.3,0-.5,0-.2,0-.4-.2-.6s-.2-.5-.4-.7c-.2-.2-.4-.5-.7-.7-.3-.2-.7-.4-1.2-.5-.5,0-1.1-.1-1.9-.1h-3.1v6.3h1.4c1.1,0,2,0,2.8,0,.7,0,1.3-.2,1.8-.4.1,0,.3-.2.5-.3.2-.1.4-.3.5-.5.2-.2.3-.5.4-.8.1-.3.2-.7.2-1.1Z"/>
        <path class="cls-1" d="M181.8,423.4v-20.3h14.5v3.4h-10.7v4.8h9.8v3.3h-9.8v5.4h11.4v3.4h-15.2Z"/>
        <path class="cls-1" d="M234.8,423.4l-1.2-4h-7.6l-1.2,4h-4.1l6.9-20.3h4.3l6.9,20.3h-4.1ZM229.8,406.7l-2.8,9.4h5.6l-2.8-9.4Z"/>
        <path class="cls-1" d="M270.4,406.5v16.9h-3.8v-16.9h-5.5v-3.4h15v3.4h-5.6Z"/>
        <path class="cls-1" d="M302,423.4v-20.3h3.7v20.3h-3.7Z"/>
        <path class="cls-1" d="M342.5,423.4h-5.1l-6-20.3h4l4.6,16,4.4-16h3.9l-5.8,20.3Z"/>
        <path class="cls-1" d="M373.8,423.4v-20.3h14.5v3.4h-10.7v4.8h9.8v3.3h-9.8v5.4h11.4v3.4h-15.2Z"/>
        <path class="cls-1" d="M446.3,423.4v-20.3h3.8v16.9h8.1v3.4h-11.9Z"/>
        <path class="cls-1" d="M496.3,423.4l-1.2-4h-7.6l-1.2,4h-4.1l6.9-20.3h4.3l6.9,20.3h-4.1ZM491.3,406.7l-2.8,9.4h5.6l-2.8-9.4Z"/>
        <path class="cls-1" d="M542.2,417.7c0,1-.2,2-.6,2.8-.4.8-1.1,1.5-2,2-.9.5-1.8.8-2.7.8-.9,0-1.9,0-2.8,0h-8v-20.3h7.3c.5,0,1,0,1.5,0s1,0,1.5,0c.2,0,.4,0,.6,0,.3,0,.6.1.9.2.3.1.7.3,1,.5.4.2.7.5,1,.8.1.1.2.3.4.5.1.2.3.4.4.7.1.3.2.6.3.9,0,.3.1.7.1,1.2s0,.4,0,.7c0,.3-.1.6-.2,1-.1.4-.3.7-.6,1.1-.2.4-.6.7-1,.9-.2.2-.5.3-.7.3-.2,0-.5.1-.8.2.1,0,.3,0,.6.2s.6.2.9.4c.2.1.5.3.9.6.3.2.6.6.9,1s.5.8.7,1.4c.2.5.3,1.2.3,1.9ZM537.3,408.7c0-.1,0-.3,0-.6,0-.3-.2-.6-.4-.8-.2-.3-.5-.5-.9-.7-.3-.2-.7-.3-1.1-.3-.4,0-.7,0-1.1,0h-4v5.1h2.8c.5,0,1,0,1.5,0,.5,0,.9-.1,1.4-.2.4,0,.8-.3,1.2-.7.1-.1.2-.3.4-.5.2-.2.2-.6.2-1ZM538.3,417.3c0-.1,0-.3,0-.5,0-.2-.1-.5-.2-.7-.1-.3-.3-.5-.5-.8-.2-.2-.5-.5-.9-.7-.5-.2-1.1-.4-1.9-.4s-1.7,0-2.9,0h-2.1v6h5.2c.3,0,.7,0,1,0,.3,0,.6-.2.9-.3.3-.1.6-.4.8-.6.1-.2.3-.4.4-.6.1-.3.2-.7.2-1.2Z"/>
      </g>
    </g>
  </g>
</svg>